<?xml version="1.0" encoding="UTF-8"?>
<!DOCTYPE svg PUBLIC "-//W3C//DTD SVG 1.1//EN" "http://www.w3.org/Graphics/SVG/1.1/DTD/svg11.dtd">
<svg version="1.2" width="210mm" height="297mm" viewBox="0 0 21000 29700" preserveAspectRatio="xMidYMid" fill-rule="evenodd" clip-path="url(#presentation_clip_path)" stroke-width="28.222" stroke-linejoin="round" xmlns="http://www.w3.org/2000/svg" xmlns:ooo="http://xml.openoffice.org/svg/export" xmlns:xlink="http://www.w3.org/1999/xlink" xml:space="preserve">
 <defs class="ClipPathGroup">
  <clipPath id="presentation_clip_path" clipPathUnits="userSpaceOnUse">
   <rect x="0" y="0" width="21000" height="29700"/>
  </clipPath>
 </defs>
 <defs class="TextShapeIndex">
  <g ooo:slide="id1" ooo:id-list="id3 id4 id5 id6 id7 id8 id9 id10 id11 id12 id13 id14 id15 id16 id17 id18 id19 id20 id21 id22 id23 id24 id25 id26 id27 id28 id29 id30 id31 id32 id33 id34 id35 id36 id37 id38 id39 id40 id41 id42 id43 id44 id45 id46 id47 id48 id49 id50"/>
 </defs>
 <defs class="EmbeddedBulletChars">
  <g id="bullet-char-template(57356)" transform="scale(0.00048828125,-0.00048828125)">
   <path d="M 580,1141 L 1163,571 580,0 -4,571 580,1141 Z"/>
  </g>
  <g id="bullet-char-template(57354)" transform="scale(0.00048828125,-0.00048828125)">
   <path d="M 8,1128 L 1137,1128 1137,0 8,0 8,1128 Z"/>
  </g>
  <g id="bullet-char-template(10146)" transform="scale(0.00048828125,-0.00048828125)">
   <path d="M 174,0 L 602,739 174,1481 1456,739 174,0 Z M 1358,739 L 309,1346 659,739 1358,739 Z"/>
  </g>
  <g id="bullet-char-template(10132)" transform="scale(0.00048828125,-0.00048828125)">
   <path d="M 2015,739 L 1276,0 717,0 1260,543 174,543 174,936 1260,936 717,1481 1274,1481 2015,739 Z"/>
  </g>
  <g id="bullet-char-template(10007)" transform="scale(0.00048828125,-0.00048828125)">
   <path d="M 0,-2 C -7,14 -16,27 -25,37 L 356,567 C 262,823 215,952 215,954 215,979 228,992 255,992 264,992 276,990 289,987 310,991 331,999 354,1012 L 381,999 492,748 772,1049 836,1024 860,1049 C 881,1039 901,1025 922,1006 886,937 835,863 770,784 769,783 710,716 594,584 L 774,223 C 774,196 753,168 711,139 L 727,119 C 717,90 699,76 672,76 641,76 570,178 457,381 L 164,-76 C 142,-110 111,-127 72,-127 30,-127 9,-110 8,-76 1,-67 -2,-52 -2,-32 -2,-23 -1,-13 0,-2 Z"/>
  </g>
  <g id="bullet-char-template(10004)" transform="scale(0.00048828125,-0.00048828125)">
   <path d="M 285,-33 C 182,-33 111,30 74,156 52,228 41,333 41,471 41,549 55,616 82,672 116,743 169,778 240,778 293,778 328,747 346,684 L 369,508 C 377,444 397,411 428,410 L 1163,1116 C 1174,1127 1196,1133 1229,1133 1271,1133 1292,1118 1292,1087 L 1292,965 C 1292,929 1282,901 1262,881 L 442,47 C 390,-6 338,-33 285,-33 Z"/>
  </g>
  <g id="bullet-char-template(9679)" transform="scale(0.00048828125,-0.00048828125)">
   <path d="M 813,0 C 632,0 489,54 383,161 276,268 223,411 223,592 223,773 276,916 383,1023 489,1130 632,1184 813,1184 992,1184 1136,1130 1245,1023 1353,916 1407,772 1407,592 1407,412 1353,268 1245,161 1136,54 992,0 813,0 Z"/>
  </g>
  <g id="bullet-char-template(8226)" transform="scale(0.00048828125,-0.00048828125)">
   <path d="M 346,457 C 273,457 209,483 155,535 101,586 74,649 74,723 74,796 101,859 155,911 209,963 273,989 346,989 419,989 480,963 531,910 582,859 608,796 608,723 608,648 583,586 532,535 482,483 420,457 346,457 Z"/>
  </g>
  <g id="bullet-char-template(8211)" transform="scale(0.00048828125,-0.00048828125)">
   <path d="M -4,459 L 1135,459 1135,606 -4,606 -4,459 Z"/>
  </g>
 </defs>
 <defs class="TextEmbeddedBitmaps"/>
 <g>
  <g id="id2" class="Master_Slide">
   <g id="bg-id2" class="Background"/>
   <g id="bo-id2" class="BackgroundObjects"/>
  </g>
 </g>
 <g class="SlideGroup">
  <g>
   <g id="id1" class="Slide" clip-path="url(#presentation_clip_path)">
    <g class="Page">
     <g class="com.sun.star.drawing.CustomShape">
      <g id="id3">
       <path fill="none" stroke="rgb(0,0,0)" d="M 5500,9900 L 3700,9900 3700,8300 7300,8300 7300,9900 5500,9900 Z"/>
       <text class="TextShape"><tspan class="TextParagraph" font-family="Arial, sans-serif" font-size="493px" font-weight="400"><tspan class="TextPosition" x="5018" y="8994"><tspan fill="rgb(0,0,0)" stroke="none">Ліва</tspan></tspan><tspan class="TextPosition" x="4903" y="9545"><tspan fill="rgb(0,0,0)" stroke="none">подія</tspan></tspan></tspan></text>
      </g>
     </g>
     <g class="com.sun.star.drawing.CustomShape">
      <g id="id4">
       <path fill="none" stroke="rgb(0,0,0)" d="M 5500,10400 L 3700,10400 3700,9900 7300,9900 7300,10400 5500,10400 Z"/>
       <text class="TextShape"><tspan class="TextParagraph" font-family="Arial, sans-serif" font-size="353px" font-style="italic" font-weight="400"><tspan class="TextPosition" x="4522" y="10271"><tspan fill="rgb(0,0,0)" stroke="none">Права подія</tspan></tspan></tspan></text>
      </g>
     </g>
     <g class="com.sun.star.drawing.CustomShape">
      <g id="id5">
       <path fill="none" stroke="rgb(0,0,0)" d="M 5500,8300 L 3700,8300 3700,7800 7300,7800 7300,8300 5500,8300 Z"/>
       <text class="TextShape"><tspan class="TextParagraph" font-family="Arial, sans-serif" font-size="353px" font-style="italic" font-weight="400"><tspan class="TextPosition" x="4685" y="8171"><tspan fill="rgb(0,0,0)" stroke="none">Ліва подія</tspan></tspan></tspan></text>
      </g>
     </g>
     <g class="com.sun.star.drawing.CustomShape">
      <g id="id6">
       <path fill="none" stroke="rgb(0,0,0)" d="M 10500,9900 L 8700,9900 8700,8300 12300,8300 12300,9900 10500,9900 Z"/>
       <text class="TextShape"><tspan class="TextParagraph" font-family="Arial, sans-serif" font-size="493px" font-weight="400"><tspan class="TextPosition" x="9510" y="8994"><tspan fill="rgb(0,0,0)" stroke="none">Основна</tspan></tspan><tspan class="TextPosition" x="9903" y="9545"><tspan fill="rgb(0,0,0)" stroke="none">подія</tspan></tspan></tspan></text>
      </g>
     </g>
     <g class="com.sun.star.drawing.CustomShape">
      <g id="id7">
       <path fill="none" stroke="rgb(0,0,0)" d="M 10500,10400 L 8700,10400 8700,9900 12300,9900 12300,10400 10500,10400 Z"/>
       <text class="TextShape"><tspan class="TextParagraph" font-family="Arial, sans-serif" font-size="353px" font-style="italic" font-weight="400"><tspan class="TextPosition" x="9522" y="10271"><tspan fill="rgb(0,0,0)" stroke="none">Права подія</tspan></tspan></tspan></text>
      </g>
     </g>
     <g class="com.sun.star.drawing.CustomShape">
      <g id="id8">
       <path fill="none" stroke="rgb(0,0,0)" d="M 10500,8300 L 8700,8300 8700,7800 12300,7800 12300,8300 10500,8300 Z"/>
       <text class="TextShape"><tspan class="TextParagraph" font-family="Arial, sans-serif" font-size="353px" font-style="italic" font-weight="400"><tspan class="TextPosition" x="9685" y="8171"><tspan fill="rgb(0,0,0)" stroke="none">Ліва подія</tspan></tspan></tspan></text>
      </g>
     </g>
     <g class="com.sun.star.drawing.CustomShape">
      <g id="id9">
       <path fill="none" stroke="rgb(0,0,0)" d="M 15500,9900 L 13700,9900 13700,8300 17300,8300 17300,9900 15500,9900 Z"/>
       <text class="TextShape"><tspan class="TextParagraph" font-family="Arial, sans-serif" font-size="493px" font-weight="400"><tspan class="TextPosition" x="14783" y="8994"><tspan fill="rgb(0,0,0)" stroke="none">Права</tspan></tspan><tspan class="TextPosition" x="14903" y="9545"><tspan fill="rgb(0,0,0)" stroke="none">подія</tspan></tspan></tspan></text>
      </g>
     </g>
     <g class="com.sun.star.drawing.CustomShape">
      <g id="id10">
       <path fill="none" stroke="rgb(0,0,0)" d="M 15500,10400 L 13700,10400 13700,9900 17300,9900 17300,10400 15500,10400 Z"/>
       <text class="TextShape"><tspan class="TextParagraph" font-family="Arial, sans-serif" font-size="353px" font-style="italic" font-weight="400"><tspan class="TextPosition" x="14522" y="10271"><tspan fill="rgb(0,0,0)" stroke="none">Права подія</tspan></tspan></tspan></text>
      </g>
     </g>
     <g class="com.sun.star.drawing.CustomShape">
      <g id="id11">
       <path fill="none" stroke="rgb(0,0,0)" d="M 15500,8300 L 13700,8300 13700,7800 17300,7800 17300,8300 15500,8300 Z"/>
       <text class="TextShape"><tspan class="TextParagraph" font-family="Arial, sans-serif" font-size="353px" font-style="italic" font-weight="400"><tspan class="TextPosition" x="14685" y="8171"><tspan fill="rgb(0,0,0)" stroke="none">Ліва подія</tspan></tspan></tspan></text>
      </g>
     </g>
     <g class="com.sun.star.drawing.ConnectorShape">
      <g id="id12">
       <path fill="none" stroke="rgb(0,0,0)" d="M 12300,10150 L 13356,9358"/>
       <path fill="rgb(0,0,0)" stroke="none" d="M 13700,9100 L 13250,9250 13430,9490 13700,9100 Z"/>
      </g>
     </g>
     <g class="com.sun.star.drawing.ConnectorShape">
      <g id="id13">
       <path fill="none" stroke="rgb(0,0,0)" d="M 7300,10150 L 8356,9358"/>
       <path fill="rgb(0,0,0)" stroke="none" d="M 8700,9100 L 8250,9250 8430,9490 8700,9100 Z"/>
      </g>
     </g>
     <g class="com.sun.star.drawing.ConnectorShape">
      <g id="id14">
       <path fill="none" stroke="rgb(0,0,0)" d="M 13700,8050 L 12644,8842"/>
       <path fill="rgb(0,0,0)" stroke="none" d="M 12300,9100 L 12750,8950 12570,8710 12300,9100 Z"/>
      </g>
     </g>
     <g class="com.sun.star.drawing.ConnectorShape">
      <g id="id15">
       <path fill="none" stroke="rgb(0,0,0)" d="M 8700,8050 L 7644,8842"/>
       <path fill="rgb(0,0,0)" stroke="none" d="M 7300,9100 L 7750,8950 7570,8710 7300,9100 Z"/>
      </g>
     </g>
     <g class="com.sun.star.drawing.CustomShape">
      <g id="id16">
       <path fill="none" stroke="rgb(0,0,0)" d="M 10500,5800 L 2800,5800 2800,3800 18200,3800 18200,5800 10500,5800 Z"/>
       <text class="TextShape"><tspan class="TextParagraph" font-family="Arial, sans-serif" font-size="493px" font-weight="400"><tspan class="TextPosition" x="9097" y="4970"><tspan fill="rgb(0,0,0)" stroke="none">Решта подій</tspan></tspan></tspan></text>
      </g>
     </g>
     <g class="com.sun.star.drawing.ConnectorShape">
      <g id="id17">
       <path fill="none" stroke="rgb(0,0,0)" d="M 17300,10150 L 18701,10150 18701,4800 18630,4800"/>
       <path fill="rgb(0,0,0)" stroke="none" d="M 18200,4800 L 18650,4950 18650,4650 18200,4800 Z"/>
      </g>
     </g>
     <g class="com.sun.star.drawing.LineShape">
      <g id="id18">
       <path fill="none" stroke="rgb(0,0,0)" d="M 17730,9100 L 17900,9100"/>
       <path fill="rgb(0,0,0)" stroke="none" d="M 17300,9100 L 17750,9250 17750,8950 17300,9100 Z"/>
      </g>
     </g>
     <g class="com.sun.star.drawing.LineShape">
      <g id="id19">
       <path fill="none" stroke="rgb(0,0,0)" d="M 17900,9100 L 17900,5800"/>
      </g>
     </g>
     <g class="com.sun.star.drawing.LineShape">
      <g id="id20">
       <path fill="none" stroke="rgb(0,0,0)" d="M 3100,8100 L 3100,6230"/>
       <path fill="rgb(0,0,0)" stroke="none" d="M 3100,5800 L 2950,6250 3250,6250 3100,5800 Z"/>
      </g>
     </g>
     <g class="com.sun.star.drawing.LineShape">
      <g id="id21">
       <path fill="none" stroke="rgb(0,0,0)" d="M 3700,8100 L 3100,8100"/>
      </g>
     </g>
     <g class="com.sun.star.drawing.ConnectorShape">
      <g id="id22">
       <path fill="none" stroke="rgb(0,0,0)" d="M 2800,4800 L 2299,4800 2299,9100 3270,9100"/>
       <path fill="rgb(0,0,0)" stroke="none" d="M 3700,9100 L 3250,8950 3250,9250 3700,9100 Z"/>
      </g>
     </g>
     <g class="com.sun.star.drawing.CustomShape">
      <g id="id23">
       <path fill="none" stroke="rgb(0,0,0)" d="M 10500,14200 L 8700,14200 8700,12600 12300,12600 12300,14200 10500,14200 Z"/>
       <text class="TextShape"><tspan class="TextParagraph" font-family="Arial, sans-serif" font-size="493px" font-weight="400"><tspan class="TextPosition" x="9510" y="13294"><tspan fill="rgb(0,0,0)" stroke="none">Основна</tspan></tspan><tspan class="TextPosition" x="9903" y="13845"><tspan fill="rgb(0,0,0)" stroke="none">подія</tspan></tspan></tspan></text>
      </g>
     </g>
     <g class="com.sun.star.drawing.CustomShape">
      <g id="id24">
       <path fill="none" stroke="rgb(0,0,0)" d="M 10500,14700 L 8700,14700 8700,14200 12300,14200 12300,14700 10500,14700 Z"/>
       <text class="TextShape"><tspan class="TextParagraph" font-family="Arial, sans-serif" font-size="353px" font-style="italic" font-weight="400"><tspan class="TextPosition" x="9522" y="14571"><tspan fill="rgb(0,0,0)" stroke="none">Права подія</tspan></tspan></tspan></text>
      </g>
     </g>
     <g class="com.sun.star.drawing.CustomShape">
      <g id="id25">
       <path fill="none" stroke="rgb(0,0,0)" d="M 10500,12600 L 8700,12600 8700,12100 12300,12100 12300,12600 10500,12600 Z"/>
       <text class="TextShape"><tspan class="TextParagraph" font-family="Arial, sans-serif" font-size="353px" font-style="italic" font-weight="400"><tspan class="TextPosition" x="9685" y="12471"><tspan fill="rgb(0,0,0)" stroke="none">Ліва подія</tspan></tspan></tspan></text>
      </g>
     </g>
     <g class="com.sun.star.drawing.ConnectorShape">
      <g id="id26">
       <path fill="none" stroke="rgb(0,0,0)" d="M 8700,14450 L 8199,14450 8199,13400 8270,13400"/>
       <path fill="rgb(0,0,0)" stroke="none" d="M 8700,13400 L 8250,13250 8250,13550 8700,13400 Z"/>
      </g>
     </g>
     <g class="com.sun.star.drawing.ConnectorShape">
      <g id="id27">
       <path fill="none" stroke="rgb(0,0,0)" d="M 12300,12350 L 12801,12350 12801,13400 12730,13400"/>
       <path fill="rgb(0,0,0)" stroke="none" d="M 12300,13400 L 12750,13550 12750,13250 12300,13400 Z"/>
      </g>
     </g>
     <g class="com.sun.star.drawing.CustomShape">
      <g id="id28">
       <path fill="none" stroke="rgb(0,0,0)" d="M 5500,22900 L 3700,22900 3700,21300 7300,21300 7300,22900 5500,22900 Z"/>
       <text class="TextShape"><tspan class="TextParagraph" font-family="Arial, sans-serif" font-size="493px" font-weight="400"><tspan class="TextPosition" x="5018" y="21994"><tspan fill="rgb(0,0,0)" stroke="none">Ліва</tspan></tspan><tspan class="TextPosition" x="4903" y="22545"><tspan fill="rgb(0,0,0)" stroke="none">подія</tspan></tspan></tspan></text>
      </g>
     </g>
     <g class="com.sun.star.drawing.CustomShape">
      <g id="id29">
       <path fill="none" stroke="rgb(0,0,0)" d="M 5500,23400 L 3700,23400 3700,22900 7300,22900 7300,23400 5500,23400 Z"/>
       <text class="TextShape"><tspan class="TextParagraph" font-family="Arial, sans-serif" font-size="353px" font-style="italic" font-weight="400"><tspan class="TextPosition" x="4522" y="23271"><tspan fill="rgb(0,0,0)" stroke="none">Права подія</tspan></tspan></tspan></text>
      </g>
     </g>
     <g class="com.sun.star.drawing.CustomShape">
      <g id="id30">
       <path fill="none" stroke="rgb(0,0,0)" d="M 5500,21300 L 3700,21300 3700,20800 7300,20800 7300,21300 5500,21300 Z"/>
       <text class="TextShape"><tspan class="TextParagraph" font-family="Arial, sans-serif" font-size="353px" font-style="italic" font-weight="400"><tspan class="TextPosition" x="4685" y="21171"><tspan fill="rgb(0,0,0)" stroke="none">Ліва подія</tspan></tspan></tspan></text>
      </g>
     </g>
     <g class="com.sun.star.drawing.CustomShape">
      <g id="id31">
       <path fill="none" stroke="rgb(0,0,0)" d="M 10500,26900 L 8700,26900 8700,25300 12300,25300 12300,26900 10500,26900 Z"/>
       <text class="TextShape"><tspan class="TextParagraph" font-family="Arial, sans-serif" font-size="493px" font-weight="400"><tspan class="TextPosition" x="9510" y="25994"><tspan fill="rgb(0,0,0)" stroke="none">Основна</tspan></tspan><tspan class="TextPosition" x="9903" y="26545"><tspan fill="rgb(0,0,0)" stroke="none">подія</tspan></tspan></tspan></text>
      </g>
     </g>
     <g class="com.sun.star.drawing.CustomShape">
      <g id="id32">
       <path fill="none" stroke="rgb(0,0,0)" d="M 10500,27400 L 8700,27400 8700,26900 12300,26900 12300,27400 10500,27400 Z"/>
       <text class="TextShape"><tspan class="TextParagraph" font-family="Arial, sans-serif" font-size="353px" font-style="italic" font-weight="400"><tspan class="TextPosition" x="9522" y="27271"><tspan fill="rgb(0,0,0)" stroke="none">Права подія</tspan></tspan></tspan></text>
      </g>
     </g>
     <g class="com.sun.star.drawing.CustomShape">
      <g id="id33">
       <path fill="none" stroke="rgb(0,0,0)" d="M 10500,25300 L 8700,25300 8700,24800 12300,24800 12300,25300 10500,25300 Z"/>
       <text class="TextShape"><tspan class="TextParagraph" font-family="Arial, sans-serif" font-size="353px" font-style="italic" font-weight="400"><tspan class="TextPosition" x="9685" y="25171"><tspan fill="rgb(0,0,0)" stroke="none">Ліва подія</tspan></tspan></tspan></text>
      </g>
     </g>
     <g class="com.sun.star.drawing.CustomShape">
      <g id="id34">
       <path fill="none" stroke="rgb(0,0,0)" d="M 15500,22900 L 13700,22900 13700,21300 17300,21300 17300,22900 15500,22900 Z"/>
       <text class="TextShape"><tspan class="TextParagraph" font-family="Arial, sans-serif" font-size="493px" font-weight="400"><tspan class="TextPosition" x="14783" y="21994"><tspan fill="rgb(0,0,0)" stroke="none">Права</tspan></tspan><tspan class="TextPosition" x="14903" y="22545"><tspan fill="rgb(0,0,0)" stroke="none">подія</tspan></tspan></tspan></text>
      </g>
     </g>
     <g class="com.sun.star.drawing.CustomShape">
      <g id="id35">
       <path fill="none" stroke="rgb(0,0,0)" d="M 15500,23400 L 13700,23400 13700,22900 17300,22900 17300,23400 15500,23400 Z"/>
       <text class="TextShape"><tspan class="TextParagraph" font-family="Arial, sans-serif" font-size="353px" font-style="italic" font-weight="400"><tspan class="TextPosition" x="14522" y="23271"><tspan fill="rgb(0,0,0)" stroke="none">Права подія</tspan></tspan></tspan></text>
      </g>
     </g>
     <g class="com.sun.star.drawing.CustomShape">
      <g id="id36">
       <path fill="none" stroke="rgb(0,0,0)" d="M 15500,21300 L 13700,21300 13700,20800 17300,20800 17300,21300 15500,21300 Z"/>
       <text class="TextShape"><tspan class="TextParagraph" font-family="Arial, sans-serif" font-size="353px" font-style="italic" font-weight="400"><tspan class="TextPosition" x="14685" y="21171"><tspan fill="rgb(0,0,0)" stroke="none">Ліва подія</tspan></tspan></tspan></text>
      </g>
     </g>
     <g class="com.sun.star.drawing.CustomShape">
      <g id="id37">
       <path fill="none" stroke="rgb(0,0,0)" d="M 10500,18800 L 2800,18800 2800,16800 18200,16800 18200,18800 10500,18800 Z"/>
       <text class="TextShape"><tspan class="TextParagraph" font-family="Arial, sans-serif" font-size="493px" font-weight="400"><tspan class="TextPosition" x="9097" y="17970"><tspan fill="rgb(0,0,0)" stroke="none">Решта подій</tspan></tspan></tspan></text>
      </g>
     </g>
     <g class="com.sun.star.drawing.ConnectorShape">
      <g id="id38">
       <path fill="none" stroke="rgb(0,0,0)" d="M 17300,23150 L 18701,23150 18701,17800 18630,17800"/>
       <path fill="rgb(0,0,0)" stroke="none" d="M 18200,17800 L 18650,17950 18650,17650 18200,17800 Z"/>
      </g>
     </g>
     <g class="com.sun.star.drawing.LineShape">
      <g id="id39">
       <path fill="none" stroke="rgb(0,0,0)" d="M 17730,22100 L 17900,22100"/>
       <path fill="rgb(0,0,0)" stroke="none" d="M 17300,22100 L 17750,22250 17750,21950 17300,22100 Z"/>
      </g>
     </g>
     <g class="com.sun.star.drawing.LineShape">
      <g id="id40">
       <path fill="none" stroke="rgb(0,0,0)" d="M 17900,22100 L 17900,18800"/>
      </g>
     </g>
     <g class="com.sun.star.drawing.LineShape">
      <g id="id41">
       <path fill="none" stroke="rgb(0,0,0)" d="M 3100,21100 L 3100,19230"/>
       <path fill="rgb(0,0,0)" stroke="none" d="M 3100,18800 L 2950,19250 3250,19250 3100,18800 Z"/>
      </g>
     </g>
     <g class="com.sun.star.drawing.LineShape">
      <g id="id42">
       <path fill="none" stroke="rgb(0,0,0)" d="M 3700,21100 L 3100,21100"/>
      </g>
     </g>
     <g class="com.sun.star.drawing.ConnectorShape">
      <g id="id43">
       <path fill="none" stroke="rgb(0,0,0)" d="M 2800,17800 L 2299,17800 2299,22100 3270,22100"/>
       <path fill="rgb(0,0,0)" stroke="none" d="M 3700,22100 L 3250,21950 3250,22250 3700,22100 Z"/>
      </g>
     </g>
     <g class="com.sun.star.drawing.TextShape">
      <g id="id44">
       <text class="TextShape"><tspan class="TextParagraph" font-family="Arial, sans-serif" font-size="493px" font-weight="400"><tspan class="TextPosition" x="9460" y="22070"><tspan fill="rgb(0,0,0)" stroke="none">Основна </tspan></tspan><tspan class="TextPosition" x="9853" y="22621"><tspan fill="rgb(0,0,0)" stroke="none">подія</tspan></tspan></tspan></text>
      </g>
     </g>
     <g class="com.sun.star.drawing.CustomShape">
      <g id="id45">
       <path fill="none" stroke="rgb(0,0,0)" d="M 8200,21850 L 8800,21850 8800,21600 9001,22100 8800,22601 8800,22350 8200,22350 8200,21850 Z"/>
       <path fill="none" stroke="rgb(0,0,0)" d="M 8200,21600 L 8200,21600 Z"/>
       <path fill="none" stroke="rgb(0,0,0)" d="M 9001,22601 L 9001,22601 Z"/>
      </g>
     </g>
     <g class="com.sun.star.drawing.CustomShape">
      <g id="id46">
       <path fill="none" stroke="rgb(0,0,0)" d="M 10175,23700 L 10175,24225 9900,24225 10450,24401 11001,24225 10725,24225 10725,23700 10175,23700 Z"/>
       <path fill="none" stroke="rgb(0,0,0)" d="M 9900,23700 L 9900,23700 Z"/>
       <path fill="none" stroke="rgb(0,0,0)" d="M 11001,24401 L 11001,24401 Z"/>
      </g>
     </g>
     <g class="com.sun.star.drawing.CustomShape">
      <g id="id47">
       <path fill="none" stroke="rgb(0,0,0)" d="M 12700,25850 L 13300,25850 13300,25600 13501,26100 13300,26601 13300,26350 12700,26350 12700,25850 Z"/>
       <path fill="none" stroke="rgb(0,0,0)" d="M 12700,25600 L 12700,25600 Z"/>
       <path fill="none" stroke="rgb(0,0,0)" d="M 13501,26601 L 13501,26601 Z"/>
      </g>
     </g>
     <g class="com.sun.star.drawing.TextShape">
      <g id="id48">
       <text class="TextShape"><tspan class="TextParagraph" font-family="Arial, sans-serif" font-size="493px" font-weight="400"><tspan class="TextPosition" x="13876" y="25970"><tspan fill="rgb(0,0,0)" stroke="none">На опрацювання</tspan></tspan><tspan class="TextPosition" x="14871" y="26521"><tspan fill="rgb(0,0,0)" stroke="none">потоком</tspan></tspan></tspan></text>
      </g>
     </g>
     <g class="com.sun.star.drawing.ConnectorShape">
      <g id="id49">
       <path fill="none" stroke="rgb(0,0,0)" d="M 13700,23150 L 7900,23150 7900,22100 7730,22100"/>
       <path fill="rgb(0,0,0)" stroke="none" d="M 7300,22100 L 7750,22250 7750,21950 7300,22100 Z"/>
      </g>
     </g>
     <g class="com.sun.star.drawing.ConnectorShape">
      <g id="id50">
       <path fill="none" stroke="rgb(0,0,0)" d="M 7300,21050 L 13100,21050 13100,22100 13270,22100"/>
       <path fill="rgb(0,0,0)" stroke="none" d="M 13700,22100 L 13250,21950 13250,22250 13700,22100 Z"/>
      </g>
     </g>
    </g>
   </g>
  </g>
 </g>
</svg>