<?xml version="1.0" encoding="UTF-8"?>
<!DOCTYPE svg PUBLIC "-//W3C//DTD SVG 1.1//EN" "http://www.w3.org/Graphics/SVG/1.1/DTD/svg11.dtd">
<svg version="1.2" width="210mm" height="297mm" viewBox="0 0 21000 29700" preserveAspectRatio="xMidYMid" fill-rule="evenodd" clip-path="url(#presentation_clip_path)" stroke-width="28.222" stroke-linejoin="round" xmlns="http://www.w3.org/2000/svg" xmlns:ooo="http://xml.openoffice.org/svg/export" xmlns:xlink="http://www.w3.org/1999/xlink" xml:space="preserve">
 <defs class="ClipPathGroup">
  <clipPath id="presentation_clip_path" clipPathUnits="userSpaceOnUse">
   <rect x="0" y="0" width="21000" height="29700"/>
  </clipPath>
 </defs>
 <defs class="TextShapeIndex">
  <g ooo:slide="id1" ooo:id-list="id3 id4 id5 id6 id7 id8 id9 id10 id11 id12 id13 id14 id15 id16 id17 id18 id19 id20 id21 id22 id23 id24 id25 id26 id27 id28 id29 id30 id31"/>
 </defs>
 <defs class="EmbeddedBulletChars">
  <g id="bullet-char-template(57356)" transform="scale(0.00048828125,-0.00048828125)">
   <path d="M 580,1141 L 1163,571 580,0 -4,571 580,1141 Z"/>
  </g>
  <g id="bullet-char-template(57354)" transform="scale(0.00048828125,-0.00048828125)">
   <path d="M 8,1128 L 1137,1128 1137,0 8,0 8,1128 Z"/>
  </g>
  <g id="bullet-char-template(10146)" transform="scale(0.00048828125,-0.00048828125)">
   <path d="M 174,0 L 602,739 174,1481 1456,739 174,0 Z M 1358,739 L 309,1346 659,739 1358,739 Z"/>
  </g>
  <g id="bullet-char-template(10132)" transform="scale(0.00048828125,-0.00048828125)">
   <path d="M 2015,739 L 1276,0 717,0 1260,543 174,543 174,936 1260,936 717,1481 1274,1481 2015,739 Z"/>
  </g>
  <g id="bullet-char-template(10007)" transform="scale(0.00048828125,-0.00048828125)">
   <path d="M 0,-2 C -7,14 -16,27 -25,37 L 356,567 C 262,823 215,952 215,954 215,979 228,992 255,992 264,992 276,990 289,987 310,991 331,999 354,1012 L 381,999 492,748 772,1049 836,1024 860,1049 C 881,1039 901,1025 922,1006 886,937 835,863 770,784 769,783 710,716 594,584 L 774,223 C 774,196 753,168 711,139 L 727,119 C 717,90 699,76 672,76 641,76 570,178 457,381 L 164,-76 C 142,-110 111,-127 72,-127 30,-127 9,-110 8,-76 1,-67 -2,-52 -2,-32 -2,-23 -1,-13 0,-2 Z"/>
  </g>
  <g id="bullet-char-template(10004)" transform="scale(0.00048828125,-0.00048828125)">
   <path d="M 285,-33 C 182,-33 111,30 74,156 52,228 41,333 41,471 41,549 55,616 82,672 116,743 169,778 240,778 293,778 328,747 346,684 L 369,508 C 377,444 397,411 428,410 L 1163,1116 C 1174,1127 1196,1133 1229,1133 1271,1133 1292,1118 1292,1087 L 1292,965 C 1292,929 1282,901 1262,881 L 442,47 C 390,-6 338,-33 285,-33 Z"/>
  </g>
  <g id="bullet-char-template(9679)" transform="scale(0.00048828125,-0.00048828125)">
   <path d="M 813,0 C 632,0 489,54 383,161 276,268 223,411 223,592 223,773 276,916 383,1023 489,1130 632,1184 813,1184 992,1184 1136,1130 1245,1023 1353,916 1407,772 1407,592 1407,412 1353,268 1245,161 1136,54 992,0 813,0 Z"/>
  </g>
  <g id="bullet-char-template(8226)" transform="scale(0.00048828125,-0.00048828125)">
   <path d="M 346,457 C 273,457 209,483 155,535 101,586 74,649 74,723 74,796 101,859 155,911 209,963 273,989 346,989 419,989 480,963 531,910 582,859 608,796 608,723 608,648 583,586 532,535 482,483 420,457 346,457 Z"/>
  </g>
  <g id="bullet-char-template(8211)" transform="scale(0.00048828125,-0.00048828125)">
   <path d="M -4,459 L 1135,459 1135,606 -4,606 -4,459 Z"/>
  </g>
 </defs>
 <defs class="TextEmbeddedBitmaps"/>
 <g>
  <g id="id2" class="Master_Slide">
   <g id="bg-id2" class="Background"/>
   <g id="bo-id2" class="BackgroundObjects"/>
  </g>
 </g>
 <g class="SlideGroup">
  <g>
   <g id="id1" class="Slide" clip-path="url(#presentation_clip_path)">
    <g class="Page">
     <g class="com.sun.star.drawing.CustomShape">
      <g id="id3">
       <path fill="none" stroke="rgb(0,0,0)" d="M 3900,7900 L 2100,7900 2100,6300 5700,6300 5700,7900 3900,7900 Z"/>
       <text class="TextShape"><tspan class="TextParagraph" font-family="Arial, sans-serif" font-size="493px" font-weight="400"><tspan class="TextPosition" x="3418" y="6994"><tspan fill="rgb(0,0,0)" stroke="none">Ліва</tspan></tspan><tspan class="TextPosition" x="3303" y="7545"><tspan fill="rgb(0,0,0)" stroke="none">подія</tspan></tspan></tspan></text>
      </g>
     </g>
     <g class="com.sun.star.drawing.CustomShape">
      <g id="id4">
       <path fill="none" stroke="rgb(0,0,0)" d="M 3900,8400 L 2100,8400 2100,7900 5700,7900 5700,8400 3900,8400 Z"/>
       <text class="TextShape"><tspan class="TextParagraph" font-family="Arial, sans-serif" font-size="353px" font-style="italic" font-weight="400"><tspan class="TextPosition" x="2922" y="8271"><tspan fill="rgb(0,0,0)" stroke="none">Права подія</tspan></tspan></tspan></text>
      </g>
     </g>
     <g class="com.sun.star.drawing.CustomShape">
      <g id="id5">
       <path fill="none" stroke="rgb(0,0,0)" d="M 3900,6300 L 2100,6300 2100,5800 5700,5800 5700,6300 3900,6300 Z"/>
       <text class="TextShape"><tspan class="TextParagraph" font-family="Arial, sans-serif" font-size="353px" font-style="italic" font-weight="400"><tspan class="TextPosition" x="3085" y="6171"><tspan fill="rgb(0,0,0)" stroke="none">Ліва подія</tspan></tspan></tspan></text>
      </g>
     </g>
     <g class="com.sun.star.drawing.CustomShape">
      <g id="id6">
       <path fill="none" stroke="rgb(0,0,0)" d="M 7900,7900 L 6100,7900 6100,6300 9700,6300 9700,7900 7900,7900 Z"/>
       <text class="TextShape"><tspan class="TextParagraph" font-family="Arial, sans-serif" font-size="493px" font-weight="400"><tspan class="TextPosition" x="6910" y="6994"><tspan fill="rgb(0,0,0)" stroke="none">Основна</tspan></tspan><tspan class="TextPosition" x="7303" y="7545"><tspan fill="rgb(0,0,0)" stroke="none">подія</tspan></tspan></tspan></text>
      </g>
     </g>
     <g class="com.sun.star.drawing.CustomShape">
      <g id="id7">
       <path fill="none" stroke="rgb(0,0,0)" d="M 7900,8400 L 6100,8400 6100,7900 9700,7900 9700,8400 7900,8400 Z"/>
       <text class="TextShape"><tspan class="TextParagraph" font-family="Arial, sans-serif" font-size="353px" font-style="italic" font-weight="400"><tspan class="TextPosition" x="6922" y="8271"><tspan fill="rgb(0,0,0)" stroke="none">Права подія</tspan></tspan></tspan></text>
      </g>
     </g>
     <g class="com.sun.star.drawing.CustomShape">
      <g id="id8">
       <path fill="none" stroke="rgb(0,0,0)" d="M 7900,6300 L 6100,6300 6100,5800 9700,5800 9700,6300 7900,6300 Z"/>
       <text class="TextShape"><tspan class="TextParagraph" font-family="Arial, sans-serif" font-size="353px" font-style="italic" font-weight="400"><tspan class="TextPosition" x="7085" y="6171"><tspan fill="rgb(0,0,0)" stroke="none">Ліва подія</tspan></tspan></tspan></text>
      </g>
     </g>
     <g class="com.sun.star.drawing.CustomShape">
      <g id="id9">
       <path fill="none" stroke="rgb(0,0,0)" d="M 16900,7900 L 15100,7900 15100,6300 18700,6300 18700,7900 16900,7900 Z"/>
       <text class="TextShape"><tspan class="TextParagraph" font-family="Arial, sans-serif" font-size="493px" font-weight="400"><tspan class="TextPosition" x="16183" y="6994"><tspan fill="rgb(0,0,0)" stroke="none">Права</tspan></tspan><tspan class="TextPosition" x="16303" y="7545"><tspan fill="rgb(0,0,0)" stroke="none">подія</tspan></tspan></tspan></text>
      </g>
     </g>
     <g class="com.sun.star.drawing.CustomShape">
      <g id="id10">
       <path fill="none" stroke="rgb(0,0,0)" d="M 16900,8400 L 15100,8400 15100,7900 18700,7900 18700,8400 16900,8400 Z"/>
       <text class="TextShape"><tspan class="TextParagraph" font-family="Arial, sans-serif" font-size="353px" font-style="italic" font-weight="400"><tspan class="TextPosition" x="15922" y="8271"><tspan fill="rgb(0,0,0)" stroke="none">Права подія</tspan></tspan></tspan></text>
      </g>
     </g>
     <g class="com.sun.star.drawing.CustomShape">
      <g id="id11">
       <path fill="none" stroke="rgb(0,0,0)" d="M 16900,6300 L 15100,6300 15100,5800 18700,5800 18700,6300 16900,6300 Z"/>
       <text class="TextShape"><tspan class="TextParagraph" font-family="Arial, sans-serif" font-size="353px" font-style="italic" font-weight="400"><tspan class="TextPosition" x="16085" y="6171"><tspan fill="rgb(0,0,0)" stroke="none">Ліва подія</tspan></tspan></tspan></text>
      </g>
     </g>
     <g class="com.sun.star.drawing.ConnectorShape">
      <g id="id12">
       <path fill="none" stroke="rgb(0,0,0)" d="M 5700,8150 L 5947,7502"/>
       <path fill="rgb(0,0,0)" stroke="none" d="M 6100,7100 L 5800,7467 6080,7574 6100,7100 Z"/>
      </g>
     </g>
     <g class="com.sun.star.drawing.ConnectorShape">
      <g id="id13">
       <path fill="none" stroke="rgb(0,0,0)" d="M 6100,6050 L 5853,6698"/>
       <path fill="rgb(0,0,0)" stroke="none" d="M 5700,7100 L 6000,6733 5720,6626 5700,7100 Z"/>
      </g>
     </g>
     <g class="com.sun.star.drawing.CustomShape">
      <g id="id14">
       <path fill="none" stroke="rgb(0,0,0)" d="M 10550,3800 L 1800,3800 1800,1800 19300,1800 19300,3800 10550,3800 Z"/>
       <text class="TextShape"><tspan class="TextParagraph" font-family="Arial, sans-serif" font-size="493px" font-weight="400"><tspan class="TextPosition" x="9147" y="2970"><tspan fill="rgb(0,0,0)" stroke="none">Решта подій</tspan></tspan></tspan></text>
      </g>
     </g>
     <g class="com.sun.star.drawing.ConnectorShape">
      <g id="id15">
       <path fill="none" stroke="rgb(0,0,0)" d="M 18700,8150 L 19801,8150 19801,2800 19730,2800"/>
       <path fill="rgb(0,0,0)" stroke="none" d="M 19300,2800 L 19750,2950 19750,2650 19300,2800 Z"/>
      </g>
     </g>
     <g class="com.sun.star.drawing.LineShape">
      <g id="id16">
       <path fill="none" stroke="rgb(0,0,0)" d="M 19130,7100 L 19200,7100"/>
       <path fill="rgb(0,0,0)" stroke="none" d="M 18700,7100 L 19150,7250 19150,6950 18700,7100 Z"/>
      </g>
     </g>
     <g class="com.sun.star.drawing.LineShape">
      <g id="id17">
       <path fill="none" stroke="rgb(0,0,0)" d="M 19200,7100 L 19200,3800"/>
      </g>
     </g>
     <g class="com.sun.star.drawing.LineShape">
      <g id="id18">
       <path fill="none" stroke="rgb(0,0,0)" d="M 1900,6100 L 1900,4230"/>
       <path fill="rgb(0,0,0)" stroke="none" d="M 1900,3800 L 1750,4250 2050,4250 1900,3800 Z"/>
      </g>
     </g>
     <g class="com.sun.star.drawing.LineShape">
      <g id="id19">
       <path fill="none" stroke="rgb(0,0,0)" d="M 2100,6100 L 1900,6100"/>
      </g>
     </g>
     <g class="com.sun.star.drawing.ConnectorShape">
      <g id="id20">
       <path fill="none" stroke="rgb(0,0,0)" d="M 1800,2800 L 1299,2800 1299,7100 1670,7100"/>
       <path fill="rgb(0,0,0)" stroke="none" d="M 2100,7100 L 1650,6950 1650,7250 2100,7100 Z"/>
      </g>
     </g>
     <g class="com.sun.star.drawing.CustomShape">
      <g id="id21">
       <path fill="none" stroke="rgb(0,0,0)" d="M 12100,11600 L 10300,11600 10300,10000 13900,10000 13900,11600 12100,11600 Z"/>
       <text class="TextShape"><tspan class="TextParagraph" font-family="Arial, sans-serif" font-size="493px" font-weight="400"><tspan class="TextPosition" x="11518" y="10694"><tspan fill="rgb(0,0,0)" stroke="none">Нова</tspan></tspan><tspan class="TextPosition" x="11503" y="11245"><tspan fill="rgb(0,0,0)" stroke="none">подія</tspan></tspan></tspan></text>
      </g>
     </g>
     <g class="com.sun.star.drawing.CustomShape">
      <g id="id22">
       <path fill="none" stroke="rgb(0,0,0)" d="M 12100,12100 L 10300,12100 10300,11600 13900,11600 13900,12100 12100,12100 Z"/>
       <text class="TextShape"><tspan class="TextParagraph" font-family="Arial, sans-serif" font-size="353px" font-style="italic" font-weight="400"><tspan class="TextPosition" x="11122" y="11971"><tspan fill="rgb(0,0,0)" stroke="none">Права подія</tspan></tspan></tspan></text>
      </g>
     </g>
     <g class="com.sun.star.drawing.CustomShape">
      <g id="id23">
       <path fill="none" stroke="rgb(0,0,0)" d="M 12100,10000 L 10300,10000 10300,9500 13900,9500 13900,10000 12100,10000 Z"/>
       <text class="TextShape"><tspan class="TextParagraph" font-family="Arial, sans-serif" font-size="353px" font-style="italic" font-weight="400"><tspan class="TextPosition" x="11285" y="9871"><tspan fill="rgb(0,0,0)" stroke="none">Ліва подія</tspan></tspan></tspan></text>
      </g>
     </g>
     <g class="com.sun.star.drawing.ConnectorShape">
      <g id="id24">
       <path fill="none" stroke="rgb(0,0,0)" d="M 9700,8150 L 9800,8150 9800,9200 9800,10800 9870,10800"/>
       <path fill="rgb(0,0,0)" stroke="none" d="M 10300,10800 L 9850,10650 9850,10950 10300,10800 Z"/>
      </g>
     </g>
     <g class="com.sun.star.drawing.ConnectorShape">
      <g id="id25">
       <path fill="none" stroke="rgb(0,0,0)" d="M 10300,9750 L 10200,9750 10200,8700 10200,7100 10130,7100"/>
       <path fill="rgb(0,0,0)" stroke="none" d="M 9700,7100 L 10150,7250 10150,6950 9700,7100 Z"/>
      </g>
     </g>
     <g class="com.sun.star.drawing.CustomShape">
      <g id="id26">
       <path fill="none" stroke="rgb(0,0,0)" d="M 11675,9101 L 11675,8425 11300,8425 12050,8200 12801,8425 12425,8425 12425,9101 11675,9101 Z"/>
       <path fill="none" stroke="rgb(0,0,0)" d="M 11300,8200 L 11300,8200 Z"/>
       <path fill="none" stroke="rgb(0,0,0)" d="M 12801,9101 L 12801,9101 Z"/>
       <text class="TextShape"><tspan class="TextParagraph" font-family="Arial, sans-serif" font-size="493px" font-weight="400"><tspan class="TextPosition" x="11912" y="8876"><tspan fill="rgb(0,0,0)" stroke="none">2</tspan></tspan></tspan></text>
      </g>
     </g>
     <g class="com.sun.star.drawing.ConnectorShape">
      <g id="id27">
       <path fill="none" stroke="rgb(0,0,0)" d="M 13900,11850 L 14600,11850 14600,7100 14670,7100"/>
       <path fill="rgb(0,0,0)" stroke="none" d="M 15100,7100 L 14650,6950 14650,7250 15100,7100 Z"/>
      </g>
     </g>
     <g class="com.sun.star.drawing.ConnectorShape">
      <g id="id28">
       <path fill="none" stroke="rgb(0,0,0)" d="M 15100,6050 L 14350,6050 14350,10800 14330,10800"/>
       <path fill="rgb(0,0,0)" stroke="none" d="M 13900,10800 L 14350,10950 14350,10650 13900,10800 Z"/>
      </g>
     </g>
     <g class="com.sun.star.drawing.CustomShape">
      <g id="id29">
       <path fill="none" stroke="rgb(0,0,0)" d="M 13100,6750 L 13850,6750 13850,6400 14101,7100 13850,7800 13850,7450 13100,7450 13100,6750 Z"/>
       <path fill="none" stroke="rgb(0,0,0)" d="M 13100,6400 L 13100,6400 Z"/>
       <path fill="none" stroke="rgb(0,0,0)" d="M 14101,7801 L 14101,7801 Z"/>
       <text class="TextShape"><tspan class="TextParagraph" font-family="Arial, sans-serif" font-size="493px" font-weight="400"><tspan class="TextPosition" x="13400" y="7270"><tspan fill="rgb(0,0,0)" stroke="none">1</tspan></tspan></tspan></text>
      </g>
     </g>
     <g class="com.sun.star.drawing.TextShape">
      <g id="id30">
       <text class="TextShape"><tspan class="TextParagraph" font-family="Arial, sans-serif" font-size="423px" font-weight="400"><tspan class="TextPosition" x="1950" y="9410"><tspan font-weight="700" fill="rgb(0,0,0)" stroke="none">1</tspan><tspan fill="rgb(0,0,0)" stroke="none">. Права подія переміщується </tspan></tspan><tspan class="TextPosition" x="1950" y="9884"><tspan fill="rgb(0,0,0)" stroke="none">правіше</tspan></tspan><tspan class="TextPosition" x="1950" y="10358"><tspan font-weight="700" fill="rgb(0,0,0)" stroke="none">2</tspan><tspan fill="rgb(0,0,0)" stroke="none">. Позицію правої події займає нова </tspan></tspan><tspan class="TextPosition" x="1950" y="10832"><tspan fill="rgb(0,0,0)" stroke="none">подія</tspan></tspan></tspan></text>
      </g>
     </g>
     <g class="com.sun.star.drawing.TextShape">
      <g id="id31">
       <text class="TextShape"><tspan class="TextParagraph" font-family="Arial, sans-serif" font-size="493px" font-weight="400"><tspan class="TextPosition" x="11113" y="6670"><tspan fill="rgb(0,0,0)" stroke="none">Позиція </tspan></tspan><tspan class="TextPosition" x="11259" y="7221"><tspan fill="rgb(0,0,0)" stroke="none">правої </tspan></tspan><tspan class="TextPosition" x="11469" y="7772"><tspan fill="rgb(0,0,0)" stroke="none">події</tspan></tspan></tspan></text>
      </g>
     </g>
    </g>
   </g>
  </g>
 </g>
</svg>