<?xml version="1.0" encoding="UTF-8"?>
<!DOCTYPE svg PUBLIC "-//W3C//DTD SVG 1.1//EN" "http://www.w3.org/Graphics/SVG/1.1/DTD/svg11.dtd">
<svg version="1.2" width="210mm" height="297mm" viewBox="0 0 21000 29700" preserveAspectRatio="xMidYMid" fill-rule="evenodd" clip-path="url(#presentation_clip_path)" stroke-width="28.222" stroke-linejoin="round" xmlns="http://www.w3.org/2000/svg" xmlns:ooo="http://xml.openoffice.org/svg/export" xmlns:xlink="http://www.w3.org/1999/xlink" xml:space="preserve">
 <defs class="ClipPathGroup">
  <clipPath id="presentation_clip_path" clipPathUnits="userSpaceOnUse">
   <rect x="0" y="0" width="21000" height="29700"/>
  </clipPath>
 </defs>
 <defs class="TextShapeIndex">
  <g ooo:slide="id1" ooo:id-list="id3 id4 id5 id6 id7 id8 id9 id10 id11 id12 id13 id14 id15 id16 id17 id18 id19 id20 id21 id22 id23 id24 id25 id26 id27 id28 id29 id30 id31 id32 id33 id34 id35 id36"/>
 </defs>
 <defs class="EmbeddedBulletChars">
  <g id="bullet-char-template(57356)" transform="scale(0.00048828125,-0.00048828125)">
   <path d="M 580,1141 L 1163,571 580,0 -4,571 580,1141 Z"/>
  </g>
  <g id="bullet-char-template(57354)" transform="scale(0.00048828125,-0.00048828125)">
   <path d="M 8,1128 L 1137,1128 1137,0 8,0 8,1128 Z"/>
  </g>
  <g id="bullet-char-template(10146)" transform="scale(0.00048828125,-0.00048828125)">
   <path d="M 174,0 L 602,739 174,1481 1456,739 174,0 Z M 1358,739 L 309,1346 659,739 1358,739 Z"/>
  </g>
  <g id="bullet-char-template(10132)" transform="scale(0.00048828125,-0.00048828125)">
   <path d="M 2015,739 L 1276,0 717,0 1260,543 174,543 174,936 1260,936 717,1481 1274,1481 2015,739 Z"/>
  </g>
  <g id="bullet-char-template(10007)" transform="scale(0.00048828125,-0.00048828125)">
   <path d="M 0,-2 C -7,14 -16,27 -25,37 L 356,567 C 262,823 215,952 215,954 215,979 228,992 255,992 264,992 276,990 289,987 310,991 331,999 354,1012 L 381,999 492,748 772,1049 836,1024 860,1049 C 881,1039 901,1025 922,1006 886,937 835,863 770,784 769,783 710,716 594,584 L 774,223 C 774,196 753,168 711,139 L 727,119 C 717,90 699,76 672,76 641,76 570,178 457,381 L 164,-76 C 142,-110 111,-127 72,-127 30,-127 9,-110 8,-76 1,-67 -2,-52 -2,-32 -2,-23 -1,-13 0,-2 Z"/>
  </g>
  <g id="bullet-char-template(10004)" transform="scale(0.00048828125,-0.00048828125)">
   <path d="M 285,-33 C 182,-33 111,30 74,156 52,228 41,333 41,471 41,549 55,616 82,672 116,743 169,778 240,778 293,778 328,747 346,684 L 369,508 C 377,444 397,411 428,410 L 1163,1116 C 1174,1127 1196,1133 1229,1133 1271,1133 1292,1118 1292,1087 L 1292,965 C 1292,929 1282,901 1262,881 L 442,47 C 390,-6 338,-33 285,-33 Z"/>
  </g>
  <g id="bullet-char-template(9679)" transform="scale(0.00048828125,-0.00048828125)">
   <path d="M 813,0 C 632,0 489,54 383,161 276,268 223,411 223,592 223,773 276,916 383,1023 489,1130 632,1184 813,1184 992,1184 1136,1130 1245,1023 1353,916 1407,772 1407,592 1407,412 1353,268 1245,161 1136,54 992,0 813,0 Z"/>
  </g>
  <g id="bullet-char-template(8226)" transform="scale(0.00048828125,-0.00048828125)">
   <path d="M 346,457 C 273,457 209,483 155,535 101,586 74,649 74,723 74,796 101,859 155,911 209,963 273,989 346,989 419,989 480,963 531,910 582,859 608,796 608,723 608,648 583,586 532,535 482,483 420,457 346,457 Z"/>
  </g>
  <g id="bullet-char-template(8211)" transform="scale(0.00048828125,-0.00048828125)">
   <path d="M -4,459 L 1135,459 1135,606 -4,606 -4,459 Z"/>
  </g>
 </defs>
 <defs class="TextEmbeddedBitmaps"/>
 <g>
  <g id="id2" class="Master_Slide">
   <g id="bg-id2" class="Background"/>
   <g id="bo-id2" class="BackgroundObjects"/>
  </g>
 </g>
 <g class="SlideGroup">
  <g>
   <g id="id1" class="Slide" clip-path="url(#presentation_clip_path)">
    <g class="Page">
     <g class="com.sun.star.drawing.CustomShape">
      <g id="id3">
       <path fill="none" stroke="rgb(0,0,0)" d="M 5031,2300 C 4565,2300 4100,2150 4100,2000 4100,1850 4565,1700 5031,1700 L 8969,1700 C 9434,1700 9900,1850 9900,2000 9900,2150 9434,2300 8969,2300 L 5031,2300 Z"/>
       <path fill="none" stroke="rgb(0,0,0)" d="M 4100,1700 L 4100,1700 Z"/>
       <path fill="none" stroke="rgb(0,0,0)" d="M 9901,2301 L 9901,2301 Z"/>
       <text class="TextShape"><tspan class="TextParagraph" font-family="Arial, sans-serif" font-size="352px" font-weight="400"><tspan class="TextPosition" x="6344" y="2121"><tspan fill="rgb(0,0,0)" stroke="none">Початок</tspan></tspan></tspan></text>
      </g>
     </g>
     <g class="com.sun.star.drawing.CustomShape">
      <g id="id4">
       <path fill="none" stroke="rgb(0,0,0)" d="M 4100,2900 L 9900,2900 9900,3801 4100,3801 4100,2900 4100,2900 Z"/>
       <path fill="none" stroke="rgb(0,0,0)" d="M 4100,2900 L 4100,2900 Z"/>
       <path fill="none" stroke="rgb(0,0,0)" d="M 9901,3801 L 9901,3801 Z"/>
       <text class="TextShape"><tspan class="TextParagraph" font-family="Arial, sans-serif" font-size="352px" font-weight="400"><tspan class="TextPosition" x="4642" y="3274"><tspan fill="rgb(0,0,0)" stroke="none">Відправлення вузлу команди</tspan></tspan><tspan class="TextPosition" x="5777" y="3668"><tspan fill="rgb(0,0,0)" stroke="none">“видача даних”</tspan></tspan></tspan></text>
      </g>
     </g>
     <g class="com.sun.star.drawing.ConnectorShape">
      <g id="id5">
       <path fill="none" stroke="rgb(0,0,0)" d="M 7000,2300 L 7000,2470"/>
       <path fill="rgb(0,0,0)" stroke="none" d="M 7000,2900 L 7150,2450 6850,2450 7000,2900 Z"/>
      </g>
     </g>
     <g class="com.sun.star.drawing.CustomShape">
      <g id="id6">
       <path fill="none" stroke="rgb(0,0,0)" d="M 4100,4950 L 7000,4400 9900,4950 7000,5501 4100,4950 4100,4950 Z"/>
       <path fill="none" stroke="rgb(0,0,0)" d="M 4100,4400 L 4100,4400 Z"/>
       <path fill="none" stroke="rgb(0,0,0)" d="M 9901,5501 L 9901,5501 Z"/>
       <text class="TextShape"><tspan class="TextParagraph" font-family="Arial, sans-serif" font-size="352px" font-weight="400"><tspan class="TextPosition" x="5972" y="4874"><tspan fill="rgb(0,0,0)" stroke="none">Відправлено</tspan></tspan><tspan class="TextPosition" x="6355" y="5268"><tspan fill="rgb(0,0,0)" stroke="none">успішно</tspan></tspan></tspan></text>
      </g>
     </g>
     <g class="com.sun.star.drawing.ConnectorShape">
      <g id="id7">
       <path fill="none" stroke="rgb(0,0,0)" d="M 7000,3800 L 7000,3970"/>
       <path fill="rgb(0,0,0)" stroke="none" d="M 7000,4400 L 7150,3950 6850,3950 7000,4400 Z"/>
      </g>
     </g>
     <g class="com.sun.star.drawing.CustomShape">
      <g id="id8">
       <path fill="none" stroke="rgb(0,0,0)" d="M 4100,6100 L 9900,6100 9900,7001 4100,7001 4100,6100 4100,6100 Z"/>
       <path fill="none" stroke="rgb(0,0,0)" d="M 4100,6100 L 4100,6100 Z"/>
       <path fill="none" stroke="rgb(0,0,0)" d="M 9901,7001 L 9901,7001 Z"/>
       <text class="TextShape"><tspan class="TextParagraph" font-family="Arial, sans-serif" font-size="352px" font-weight="400"><tspan class="TextPosition" x="4886" y="6474"><tspan fill="rgb(0,0,0)" stroke="none">Відправлення вузлу хешу,</tspan></tspan><tspan class="TextPosition" x="4740" y="6868"><tspan fill="rgb(0,0,0)" stroke="none">що ідентифікує пакет даних</tspan></tspan></tspan></text>
      </g>
     </g>
     <g class="com.sun.star.drawing.CustomShape">
      <g id="id9">
       <path fill="none" stroke="rgb(0,0,0)" d="M 4100,8150 L 7000,7600 9900,8150 7000,8701 4100,8150 4100,8150 Z"/>
       <path fill="none" stroke="rgb(0,0,0)" d="M 4100,7600 L 4100,7600 Z"/>
       <path fill="none" stroke="rgb(0,0,0)" d="M 9901,8701 L 9901,8701 Z"/>
       <text class="TextShape"><tspan class="TextParagraph" font-family="Arial, sans-serif" font-size="352px" font-weight="400"><tspan class="TextPosition" x="5972" y="8074"><tspan fill="rgb(0,0,0)" stroke="none">Відправлено</tspan></tspan><tspan class="TextPosition" x="6355" y="8468"><tspan fill="rgb(0,0,0)" stroke="none">успішно</tspan></tspan></tspan></text>
      </g>
     </g>
     <g class="com.sun.star.drawing.ConnectorShape">
      <g id="id10">
       <path fill="none" stroke="rgb(0,0,0)" d="M 7000,7000 L 7000,7170"/>
       <path fill="rgb(0,0,0)" stroke="none" d="M 7000,7600 L 7150,7150 6850,7150 7000,7600 Z"/>
      </g>
     </g>
     <g class="com.sun.star.drawing.ConnectorShape">
      <g id="id11">
       <path fill="none" stroke="rgb(0,0,0)" d="M 7000,5500 L 7000,5670"/>
       <path fill="rgb(0,0,0)" stroke="none" d="M 7000,6100 L 7150,5650 6850,5650 7000,6100 Z"/>
       <text class="TextShape"><tspan class="TextParagraph" font-family="Arial, sans-serif" font-size="353px" font-weight="400"><tspan class="TextPosition" x="7352" y="5921"><tspan fill="rgb(0,0,0)" stroke="none">Так</tspan></tspan></tspan></text>
      </g>
     </g>
     <g class="com.sun.star.drawing.CustomShape">
      <g id="id12">
       <path fill="none" stroke="rgb(0,0,0)" d="M 4100,9300 L 9900,9300 9900,10201 4100,10201 4100,9300 4100,9300 Z"/>
       <path fill="none" stroke="rgb(0,0,0)" d="M 4100,9300 L 4100,9300 Z"/>
       <path fill="none" stroke="rgb(0,0,0)" d="M 9901,10201 L 9901,10201 Z"/>
       <text class="TextShape"><tspan class="TextParagraph" font-family="Arial, sans-serif" font-size="352px" font-weight="400"><tspan class="TextPosition" x="4632" y="9674"><tspan fill="rgb(0,0,0)" stroke="none">Отримання довжини частини</tspan></tspan><tspan class="TextPosition" x="5936" y="10068"><tspan fill="rgb(0,0,0)" stroke="none">пакету даних</tspan></tspan></tspan></text>
      </g>
     </g>
     <g class="com.sun.star.drawing.CustomShape">
      <g id="id13">
       <path fill="none" stroke="rgb(0,0,0)" d="M 4100,11350 L 7000,10800 9900,11350 7000,11901 4100,11350 4100,11350 Z"/>
       <path fill="none" stroke="rgb(0,0,0)" d="M 4100,10800 L 4100,10800 Z"/>
       <path fill="none" stroke="rgb(0,0,0)" d="M 9901,11901 L 9901,11901 Z"/>
       <text class="TextShape"><tspan class="TextParagraph" font-family="Arial, sans-serif" font-size="352px" font-weight="400"><tspan class="TextPosition" x="6175" y="11274"><tspan fill="rgb(0,0,0)" stroke="none">Отримано</tspan></tspan><tspan class="TextPosition" x="6355" y="11668"><tspan fill="rgb(0,0,0)" stroke="none">успішно</tspan></tspan></tspan></text>
      </g>
     </g>
     <g class="com.sun.star.drawing.ConnectorShape">
      <g id="id14">
       <path fill="none" stroke="rgb(0,0,0)" d="M 7000,10200 L 7000,10370"/>
       <path fill="rgb(0,0,0)" stroke="none" d="M 7000,10800 L 7150,10350 6850,10350 7000,10800 Z"/>
      </g>
     </g>
     <g class="com.sun.star.drawing.ConnectorShape">
      <g id="id15">
       <path fill="none" stroke="rgb(0,0,0)" d="M 7000,8700 L 7000,8870"/>
       <path fill="rgb(0,0,0)" stroke="none" d="M 7000,9300 L 7150,8850 6850,8850 7000,9300 Z"/>
       <text class="TextShape"><tspan class="TextParagraph" font-family="Arial, sans-serif" font-size="353px" font-weight="400"><tspan class="TextPosition" x="7352" y="9121"><tspan fill="rgb(0,0,0)" stroke="none">Так</tspan></tspan></tspan></text>
      </g>
     </g>
     <g class="com.sun.star.drawing.CustomShape">
      <g id="id16">
       <path fill="none" stroke="rgb(0,0,0)" d="M 4100,13050 L 7000,12500 9900,13050 7000,13601 4100,13050 4100,13050 Z"/>
       <path fill="none" stroke="rgb(0,0,0)" d="M 4100,12500 L 4100,12500 Z"/>
       <path fill="none" stroke="rgb(0,0,0)" d="M 9901,13601 L 9901,13601 Z"/>
       <text class="TextShape"><tspan class="TextParagraph" font-family="Arial, sans-serif" font-size="352px" font-weight="400"><tspan class="TextPosition" x="5662" y="13171"><tspan fill="rgb(0,0,0)" stroke="none">Довжина рівна 0</tspan></tspan></tspan></text>
      </g>
     </g>
     <g class="com.sun.star.drawing.ConnectorShape">
      <g id="id17">
       <path fill="none" stroke="rgb(0,0,0)" d="M 7000,11900 L 7000,12070"/>
       <path fill="rgb(0,0,0)" stroke="none" d="M 7000,12500 L 7150,12050 6850,12050 7000,12500 Z"/>
       <text class="TextShape"><tspan class="TextParagraph" font-family="Arial, sans-serif" font-size="353px" font-weight="400"><tspan class="TextPosition" x="7352" y="12321"><tspan fill="rgb(0,0,0)" stroke="none">Так</tspan></tspan></tspan></text>
      </g>
     </g>
     <g class="com.sun.star.drawing.CustomShape">
      <g id="id18">
       <path fill="none" stroke="rgb(0,0,0)" d="M 4100,14200 L 9900,14200 9900,15101 4100,15101 4100,14200 4100,14200 Z"/>
       <path fill="none" stroke="rgb(0,0,0)" d="M 4100,14200 L 4100,14200 Z"/>
       <path fill="none" stroke="rgb(0,0,0)" d="M 9901,15101 L 9901,15101 Z"/>
       <text class="TextShape"><tspan class="TextParagraph" font-family="Arial, sans-serif" font-size="352px" font-weight="400"><tspan class="TextPosition" x="4267" y="14574"><tspan fill="rgb(0,0,0)" stroke="none">Отримання частини пакету даних</tspan></tspan><tspan class="TextPosition" x="4288" y="14968"><tspan fill="rgb(0,0,0)" stroke="none">(відповідно до довж., отр.раніше)</tspan></tspan></tspan></text>
      </g>
     </g>
     <g class="com.sun.star.drawing.ConnectorShape">
      <g id="id19">
       <path fill="none" stroke="rgb(0,0,0)" d="M 7000,13600 L 7000,13770"/>
       <path fill="rgb(0,0,0)" stroke="none" d="M 7000,14200 L 7150,13750 6850,13750 7000,14200 Z"/>
       <text class="TextShape"><tspan class="TextParagraph" font-family="Arial, sans-serif" font-size="353px" font-weight="400"><tspan class="TextPosition" x="7460" y="14021"><tspan fill="rgb(0,0,0)" stroke="none">Ні</tspan></tspan></tspan></text>
      </g>
     </g>
     <g class="com.sun.star.drawing.CustomShape">
      <g id="id20">
       <path fill="none" stroke="rgb(0,0,0)" d="M 4100,16250 L 7000,15700 9900,16250 7000,16801 4100,16250 4100,16250 Z"/>
       <path fill="none" stroke="rgb(0,0,0)" d="M 4100,15700 L 4100,15700 Z"/>
       <path fill="none" stroke="rgb(0,0,0)" d="M 9901,16801 L 9901,16801 Z"/>
       <text class="TextShape"><tspan class="TextParagraph" font-family="Arial, sans-serif" font-size="352px" font-weight="400"><tspan class="TextPosition" x="6175" y="16174"><tspan fill="rgb(0,0,0)" stroke="none">Отримано</tspan></tspan><tspan class="TextPosition" x="6355" y="16568"><tspan fill="rgb(0,0,0)" stroke="none">успішно</tspan></tspan></tspan></text>
      </g>
     </g>
     <g class="com.sun.star.drawing.ConnectorShape">
      <g id="id21">
       <path fill="none" stroke="rgb(0,0,0)" d="M 7000,15100 L 7000,15270"/>
       <path fill="rgb(0,0,0)" stroke="none" d="M 7000,15700 L 7150,15250 6850,15250 7000,15700 Z"/>
      </g>
     </g>
     <g class="com.sun.star.drawing.ConnectorShape">
      <g id="id22">
       <path fill="none" stroke="rgb(0,0,0)" d="M 4100,16250 L 3100,16250 3100,9750 3670,9750"/>
       <path fill="rgb(0,0,0)" stroke="none" d="M 4100,9750 L 3650,9600 3650,9900 4100,9750 Z"/>
      </g>
     </g>
     <g class="com.sun.star.drawing.CustomShape">
      <g id="id23">
       <path fill="none" stroke="rgb(0,0,0)" d="M 5031,17800 C 4565,17800 4100,17650 4100,17500 4100,17350 4565,17200 5031,17200 L 8969,17200 C 9434,17200 9900,17350 9900,17500 9900,17650 9434,17800 8969,17800 L 5031,17800 Z"/>
       <path fill="none" stroke="rgb(0,0,0)" d="M 4100,17200 L 4100,17200 Z"/>
       <path fill="none" stroke="rgb(0,0,0)" d="M 9901,17801 L 9901,17801 Z"/>
       <text class="TextShape"><tspan class="TextParagraph" font-family="Arial, sans-serif" font-size="352px" font-weight="400"><tspan class="TextPosition" x="6473" y="17621"><tspan fill="rgb(0,0,0)" stroke="none">Кінець</tspan></tspan></tspan></text>
      </g>
     </g>
     <g class="com.sun.star.drawing.TextShape">
      <g id="id24">
       <text class="TextShape"><tspan class="TextParagraph" font-family="Arial, sans-serif" font-size="353px" font-weight="400"><tspan class="TextPosition" x="3477" y="16143"><tspan fill="rgb(0,0,0)" stroke="none">Так</tspan></tspan></tspan></text>
      </g>
     </g>
     <g class="com.sun.star.drawing.TextShape">
      <g id="id25">
       <text class="TextShape"><tspan class="TextParagraph" font-family="Arial, sans-serif" font-size="353px" font-weight="400"><tspan class="TextPosition" x="10077" y="12943"><tspan fill="rgb(0,0,0)" stroke="none">Так</tspan></tspan></tspan></text>
      </g>
     </g>
     <g class="com.sun.star.drawing.CustomShape">
      <g id="id26">
       <path fill="none" stroke="rgb(0,0,0)" d="M 11600,17200 L 17400,17200 17400,17800 11600,17800 11600,17200 11600,17200 Z"/>
       <path fill="none" stroke="rgb(0,0,0)" d="M 11600,17200 L 11600,17200 Z"/>
       <path fill="none" stroke="rgb(0,0,0)" d="M 17401,17801 L 17401,17801 Z"/>
       <text class="TextShape"><tspan class="TextParagraph" font-family="Arial, sans-serif" font-size="352px" font-weight="400"><tspan class="TextPosition" x="11969" y="17621"><tspan fill="rgb(0,0,0)" stroke="none">Розірвання з&apos;єднання із вузлом</tspan></tspan></tspan></text>
      </g>
     </g>
     <g class="com.sun.star.drawing.ConnectorShape">
      <g id="id27">
       <path fill="none" stroke="rgb(0,0,0)" d="M 9900,4950 L 14500,4950 14500,16770"/>
       <path fill="rgb(0,0,0)" stroke="none" d="M 14500,17200 L 14650,16750 14350,16750 14500,17200 Z"/>
      </g>
     </g>
     <g class="com.sun.star.drawing.TextShape">
      <g id="id28">
       <text class="TextShape"><tspan class="TextParagraph" font-family="Arial, sans-serif" font-size="353px" font-weight="400"><tspan class="TextPosition" x="10185" y="4843"><tspan fill="rgb(0,0,0)" stroke="none">Ні</tspan></tspan></tspan></text>
      </g>
     </g>
     <g class="com.sun.star.drawing.LineShape">
      <g id="id29">
       <path fill="none" stroke="rgb(0,0,0)" d="M 9900,16200 L 14070,16200"/>
       <path fill="rgb(0,0,0)" stroke="none" d="M 14500,16200 L 14050,16050 14050,16350 14500,16200 Z"/>
      </g>
     </g>
     <g class="com.sun.star.drawing.TextShape">
      <g id="id30">
       <text class="TextShape"><tspan class="TextParagraph" font-family="Arial, sans-serif" font-size="353px" font-weight="400"><tspan class="TextPosition" x="10185" y="16143"><tspan fill="rgb(0,0,0)" stroke="none">Ні</tspan></tspan></tspan></text>
      </g>
     </g>
     <g class="com.sun.star.drawing.LineShape">
      <g id="id31">
       <path fill="none" stroke="rgb(0,0,0)" d="M 9900,11300 L 14070,11300"/>
       <path fill="rgb(0,0,0)" stroke="none" d="M 14500,11300 L 14050,11150 14050,11450 14500,11300 Z"/>
      </g>
     </g>
     <g class="com.sun.star.drawing.TextShape">
      <g id="id32">
       <text class="TextShape"><tspan class="TextParagraph" font-family="Arial, sans-serif" font-size="353px" font-weight="400"><tspan class="TextPosition" x="10185" y="11243"><tspan fill="rgb(0,0,0)" stroke="none">Ні</tspan></tspan></tspan></text>
      </g>
     </g>
     <g class="com.sun.star.drawing.LineShape">
      <g id="id33">
       <path fill="none" stroke="rgb(0,0,0)" d="M 9900,8100 L 14070,8100"/>
       <path fill="rgb(0,0,0)" stroke="none" d="M 14500,8100 L 14050,7950 14050,8250 14500,8100 Z"/>
      </g>
     </g>
     <g class="com.sun.star.drawing.TextShape">
      <g id="id34">
       <text class="TextShape"><tspan class="TextParagraph" font-family="Arial, sans-serif" font-size="353px" font-weight="400"><tspan class="TextPosition" x="10185" y="8043"><tspan fill="rgb(0,0,0)" stroke="none">Ні</tspan></tspan></tspan></text>
      </g>
     </g>
     <g class="com.sun.star.drawing.ConnectorShape">
      <g id="id35">
       <path fill="none" stroke="rgb(0,0,0)" d="M 11600,17500 L 10330,17500"/>
       <path fill="rgb(0,0,0)" stroke="none" d="M 9900,17500 L 10350,17650 10350,17350 9900,17500 Z"/>
      </g>
     </g>
     <g class="com.sun.star.drawing.ConnectorShape">
      <g id="id36">
       <path fill="none" stroke="rgb(0,0,0)" d="M 9900,13050 L 10750,13050 10750,17070"/>
       <path fill="rgb(0,0,0)" stroke="none" d="M 10750,17500 L 10900,17050 10600,17050 10750,17500 Z"/>
      </g>
     </g>
    </g>
   </g>
  </g>
 </g>
</svg>