<?xml version="1.0" encoding="UTF-8"?>
<!DOCTYPE svg PUBLIC "-//W3C//DTD SVG 1.1//EN" "http://www.w3.org/Graphics/SVG/1.1/DTD/svg11.dtd">
<svg version="1.2" width="210mm" height="297mm" viewBox="0 0 21000 29700" preserveAspectRatio="xMidYMid" fill-rule="evenodd" clip-path="url(#presentation_clip_path)" stroke-width="28.222" stroke-linejoin="round" xmlns="http://www.w3.org/2000/svg" xmlns:ooo="http://xml.openoffice.org/svg/export" xmlns:xlink="http://www.w3.org/1999/xlink" xml:space="preserve">
 <defs class="ClipPathGroup">
  <clipPath id="presentation_clip_path" clipPathUnits="userSpaceOnUse">
   <rect x="0" y="0" width="21000" height="29700"/>
  </clipPath>
 </defs>
 <defs class="TextShapeIndex">
  <g ooo:slide="id1" ooo:id-list="id3 id4 id5 id6 id7 id8 id9 id10 id11 id12 id13 id14 id15 id16 id17 id18 id19 id20 id21 id22 id23 id24 id25 id26 id27"/>
 </defs>
 <defs class="EmbeddedBulletChars">
  <g id="bullet-char-template(57356)" transform="scale(0.00048828125,-0.00048828125)">
   <path d="M 580,1141 L 1163,571 580,0 -4,571 580,1141 Z"/>
  </g>
  <g id="bullet-char-template(57354)" transform="scale(0.00048828125,-0.00048828125)">
   <path d="M 8,1128 L 1137,1128 1137,0 8,0 8,1128 Z"/>
  </g>
  <g id="bullet-char-template(10146)" transform="scale(0.00048828125,-0.00048828125)">
   <path d="M 174,0 L 602,739 174,1481 1456,739 174,0 Z M 1358,739 L 309,1346 659,739 1358,739 Z"/>
  </g>
  <g id="bullet-char-template(10132)" transform="scale(0.00048828125,-0.00048828125)">
   <path d="M 2015,739 L 1276,0 717,0 1260,543 174,543 174,936 1260,936 717,1481 1274,1481 2015,739 Z"/>
  </g>
  <g id="bullet-char-template(10007)" transform="scale(0.00048828125,-0.00048828125)">
   <path d="M 0,-2 C -7,14 -16,27 -25,37 L 356,567 C 262,823 215,952 215,954 215,979 228,992 255,992 264,992 276,990 289,987 310,991 331,999 354,1012 L 381,999 492,748 772,1049 836,1024 860,1049 C 881,1039 901,1025 922,1006 886,937 835,863 770,784 769,783 710,716 594,584 L 774,223 C 774,196 753,168 711,139 L 727,119 C 717,90 699,76 672,76 641,76 570,178 457,381 L 164,-76 C 142,-110 111,-127 72,-127 30,-127 9,-110 8,-76 1,-67 -2,-52 -2,-32 -2,-23 -1,-13 0,-2 Z"/>
  </g>
  <g id="bullet-char-template(10004)" transform="scale(0.00048828125,-0.00048828125)">
   <path d="M 285,-33 C 182,-33 111,30 74,156 52,228 41,333 41,471 41,549 55,616 82,672 116,743 169,778 240,778 293,778 328,747 346,684 L 369,508 C 377,444 397,411 428,410 L 1163,1116 C 1174,1127 1196,1133 1229,1133 1271,1133 1292,1118 1292,1087 L 1292,965 C 1292,929 1282,901 1262,881 L 442,47 C 390,-6 338,-33 285,-33 Z"/>
  </g>
  <g id="bullet-char-template(9679)" transform="scale(0.00048828125,-0.00048828125)">
   <path d="M 813,0 C 632,0 489,54 383,161 276,268 223,411 223,592 223,773 276,916 383,1023 489,1130 632,1184 813,1184 992,1184 1136,1130 1245,1023 1353,916 1407,772 1407,592 1407,412 1353,268 1245,161 1136,54 992,0 813,0 Z"/>
  </g>
  <g id="bullet-char-template(8226)" transform="scale(0.00048828125,-0.00048828125)">
   <path d="M 346,457 C 273,457 209,483 155,535 101,586 74,649 74,723 74,796 101,859 155,911 209,963 273,989 346,989 419,989 480,963 531,910 582,859 608,796 608,723 608,648 583,586 532,535 482,483 420,457 346,457 Z"/>
  </g>
  <g id="bullet-char-template(8211)" transform="scale(0.00048828125,-0.00048828125)">
   <path d="M -4,459 L 1135,459 1135,606 -4,606 -4,459 Z"/>
  </g>
 </defs>
 <defs class="TextEmbeddedBitmaps"/>
 <g>
  <g id="id2" class="Master_Slide">
   <g id="bg-id2" class="Background"/>
   <g id="bo-id2" class="BackgroundObjects"/>
  </g>
 </g>
 <g class="SlideGroup">
  <g>
   <g id="id1" class="Slide" clip-path="url(#presentation_clip_path)">
    <g class="Page">
     <g class="com.sun.star.drawing.CustomShape">
      <g id="id3">
       <path fill="none" stroke="rgb(0,0,0)" d="M 10550,2800 L 9100,2800 9100,1700 12000,1700 12000,2800 10550,2800 Z"/>
       <text class="TextShape"><tspan class="TextParagraph" font-family="Arial, sans-serif" font-size="494px" font-weight="400"><tspan class="TextPosition" x="9668" y="2422"><tspan fill="rgb(0,0,0)" stroke="none">Вузол 0</tspan></tspan></tspan></text>
      </g>
     </g>
     <g class="com.sun.star.drawing.CustomShape">
      <g id="id4">
       <path fill="none" stroke="rgb(0,0,0)" d="M 5450,5300 L 4000,5300 4000,4200 6900,4200 6900,5300 5450,5300 Z"/>
       <text class="TextShape"><tspan class="TextParagraph" font-family="Arial, sans-serif" font-size="494px" font-weight="400"><tspan class="TextPosition" x="4568" y="4922"><tspan fill="rgb(0,0,0)" stroke="none">Вузол 1</tspan></tspan></tspan></text>
      </g>
     </g>
     <g class="com.sun.star.drawing.CustomShape">
      <g id="id5">
       <path fill="none" stroke="rgb(0,0,0)" d="M 8850,5300 L 7400,5300 7400,4200 10300,4200 10300,5300 8850,5300 Z"/>
       <text class="TextShape"><tspan class="TextParagraph" font-family="Arial, sans-serif" font-size="494px" font-weight="400"><tspan class="TextPosition" x="7968" y="4922"><tspan fill="rgb(0,0,0)" stroke="none">Вузол 2</tspan></tspan></tspan></text>
      </g>
     </g>
     <g class="com.sun.star.drawing.CustomShape">
      <g id="id6">
       <path fill="none" stroke="rgb(0,0,0)" d="M 12250,5300 L 10800,5300 10800,4200 13700,4200 13700,5300 12250,5300 Z"/>
       <text class="TextShape"><tspan class="TextParagraph" font-family="Arial, sans-serif" font-size="494px" font-weight="400"><tspan class="TextPosition" x="11368" y="4922"><tspan fill="rgb(0,0,0)" stroke="none">Вузол 3</tspan></tspan></tspan></text>
      </g>
     </g>
     <g class="com.sun.star.drawing.CustomShape">
      <g id="id7">
       <path fill="none" stroke="rgb(0,0,0)" d="M 15650,5300 L 14200,5300 14200,4200 17100,4200 17100,5300 15650,5300 Z"/>
       <text class="TextShape"><tspan class="TextParagraph" font-family="Arial, sans-serif" font-size="494px" font-weight="400"><tspan class="TextPosition" x="14768" y="4922"><tspan fill="rgb(0,0,0)" stroke="none">Вузол 4</tspan></tspan></tspan></text>
      </g>
     </g>
     <g class="com.sun.star.drawing.CustomShape">
      <g id="id8">
       <path fill="none" stroke="rgb(0,0,0)" d="M 5450,8000 L 4000,8000 4000,6900 6900,6900 6900,8000 5450,8000 Z"/>
       <text class="TextShape"><tspan class="TextParagraph" font-family="Arial, sans-serif" font-size="494px" font-weight="400"><tspan class="TextPosition" x="4568" y="7622"><tspan fill="rgb(0,0,0)" stroke="none">Вузол 5</tspan></tspan></tspan></text>
      </g>
     </g>
     <g class="com.sun.star.drawing.CustomShape">
      <g id="id9">
       <path fill="none" stroke="rgb(0,0,0)" d="M 8850,8000 L 7400,8000 7400,6900 10300,6900 10300,8000 8850,8000 Z"/>
       <text class="TextShape"><tspan class="TextParagraph" font-family="Arial, sans-serif" font-size="494px" font-weight="400"><tspan class="TextPosition" x="7968" y="7622"><tspan fill="rgb(0,0,0)" stroke="none">Вузол 6</tspan></tspan></tspan></text>
      </g>
     </g>
     <g class="com.sun.star.drawing.CustomShape">
      <g id="id10">
       <path fill="none" stroke="rgb(0,0,0)" d="M 12250,8000 L 10800,8000 10800,6900 13700,6900 13700,8000 12250,8000 Z"/>
       <text class="TextShape"><tspan class="TextParagraph" font-family="Arial, sans-serif" font-size="494px" font-weight="400"><tspan class="TextPosition" x="11368" y="7622"><tspan fill="rgb(0,0,0)" stroke="none">Вузол 7</tspan></tspan></tspan></text>
      </g>
     </g>
     <g class="com.sun.star.drawing.CustomShape">
      <g id="id11">
       <path fill="none" stroke="rgb(0,0,0)" d="M 15650,8000 L 14200,8000 14200,6900 17100,6900 17100,8000 15650,8000 Z"/>
       <text class="TextShape"><tspan class="TextParagraph" font-family="Arial, sans-serif" font-size="494px" font-weight="400"><tspan class="TextPosition" x="14768" y="7622"><tspan fill="rgb(0,0,0)" stroke="none">Вузол 8</tspan></tspan></tspan></text>
      </g>
     </g>
     <g class="com.sun.star.drawing.ConnectorShape">
      <g id="id12">
       <path fill="none" stroke="rgb(0,0,0)" d="M 10135,2914 L 5865,4086"/>
       <path fill="rgb(0,0,0)" stroke="none" d="M 10550,2800 L 10076,2774 10156,3064 10550,2800 Z"/>
       <path fill="rgb(0,0,0)" stroke="none" d="M 5450,4200 L 5924,4226 5844,3936 5450,4200 Z"/>
      </g>
     </g>
     <g class="com.sun.star.drawing.ConnectorShape">
      <g id="id13">
       <path fill="none" stroke="rgb(0,0,0)" d="M 10218,3073 L 9182,3927"/>
       <path fill="rgb(0,0,0)" stroke="none" d="M 10550,2800 L 10107,2970 10298,3202 10550,2800 Z"/>
       <path fill="rgb(0,0,0)" stroke="none" d="M 8850,4200 L 9293,4030 9102,3798 8850,4200 Z"/>
      </g>
     </g>
     <g class="com.sun.star.drawing.ConnectorShape">
      <g id="id14">
       <path fill="none" stroke="rgb(0,0,0)" d="M 10882,3073 L 11918,3927"/>
       <path fill="rgb(0,0,0)" stroke="none" d="M 10550,2800 L 10802,3202 10993,2970 10550,2800 Z"/>
       <path fill="rgb(0,0,0)" stroke="none" d="M 12250,4200 L 11998,3798 11807,4030 12250,4200 Z"/>
      </g>
     </g>
     <g class="com.sun.star.drawing.ConnectorShape">
      <g id="id15">
       <path fill="none" stroke="rgb(0,0,0)" d="M 10965,2914 L 15235,4086"/>
       <path fill="rgb(0,0,0)" stroke="none" d="M 10550,2800 L 10944,3064 11024,2774 10550,2800 Z"/>
       <path fill="rgb(0,0,0)" stroke="none" d="M 15650,4200 L 15256,3936 15176,4226 15650,4200 Z"/>
      </g>
     </g>
     <g class="com.sun.star.drawing.ConnectorShape">
      <g id="id16">
       <path fill="none" stroke="rgb(0,0,0)" d="M 5450,5730 L 5450,6470"/>
       <path fill="rgb(0,0,0)" stroke="none" d="M 5450,5300 L 5300,5750 5600,5750 5450,5300 Z"/>
       <path fill="rgb(0,0,0)" stroke="none" d="M 5450,6900 L 5600,6450 5300,6450 5450,6900 Z"/>
      </g>
     </g>
     <g class="com.sun.star.drawing.ConnectorShape">
      <g id="id17">
       <path fill="none" stroke="rgb(0,0,0)" d="M 8850,5730 L 8850,6470"/>
       <path fill="rgb(0,0,0)" stroke="none" d="M 8850,5300 L 8700,5750 9000,5750 8850,5300 Z"/>
       <path fill="rgb(0,0,0)" stroke="none" d="M 8850,6900 L 9000,6450 8700,6450 8850,6900 Z"/>
      </g>
     </g>
     <g class="com.sun.star.drawing.ConnectorShape">
      <g id="id18">
       <path fill="none" stroke="rgb(0,0,0)" d="M 9239,5483 L 11861,6717"/>
       <path fill="rgb(0,0,0)" stroke="none" d="M 8850,5300 L 9193,5627 9321,5356 8850,5300 Z"/>
       <path fill="rgb(0,0,0)" stroke="none" d="M 12250,6900 L 11907,6573 11779,6844 12250,6900 Z"/>
      </g>
     </g>
     <g class="com.sun.star.drawing.ConnectorShape">
      <g id="id19">
       <path fill="none" stroke="rgb(0,0,0)" d="M 9269,5398 L 15231,6802"/>
       <path fill="rgb(0,0,0)" stroke="none" d="M 8850,5300 L 9254,5549 9322,5257 8850,5300 Z"/>
       <path fill="rgb(0,0,0)" stroke="none" d="M 15650,6900 L 15246,6651 15178,6943 15650,6900 Z"/>
      </g>
     </g>
     <g class="com.sun.star.drawing.CustomShape">
      <g id="id20">
       <path fill="none" stroke="rgb(0,0,0)" d="M 5450,10600 L 4000,10600 4000,9500 6900,9500 6900,10600 5450,10600 Z"/>
       <text class="TextShape"><tspan class="TextParagraph" font-family="Arial, sans-serif" font-size="494px" font-weight="400"><tspan class="TextPosition" x="4568" y="10222"><tspan fill="rgb(0,0,0)" stroke="none">Вузол 9</tspan></tspan></tspan></text>
      </g>
     </g>
     <g class="com.sun.star.drawing.CustomShape">
      <g id="id21">
       <path fill="none" stroke="rgb(0,0,0)" d="M 8850,10600 L 7400,10600 7400,9500 10300,9500 10300,10600 8850,10600 Z"/>
       <text class="TextShape"><tspan class="TextParagraph" font-family="Arial, sans-serif" font-size="494px" font-weight="400"><tspan class="TextPosition" x="7830" y="10222"><tspan fill="rgb(0,0,0)" stroke="none">Вузол 10</tspan></tspan></tspan></text>
      </g>
     </g>
     <g class="com.sun.star.drawing.CustomShape">
      <g id="id22">
       <path fill="none" stroke="rgb(0,0,0)" d="M 12250,10600 L 10800,10600 10800,9500 13700,9500 13700,10600 12250,10600 Z"/>
       <text class="TextShape"><tspan class="TextParagraph" font-family="Arial, sans-serif" font-size="494px" font-weight="400"><tspan class="TextPosition" x="11249" y="10222"><tspan fill="rgb(0,0,0)" stroke="none">Вузол 11</tspan></tspan></tspan></text>
      </g>
     </g>
     <g class="com.sun.star.drawing.CustomShape">
      <g id="id23">
       <path fill="none" stroke="rgb(0,0,0)" d="M 15650,10600 L 14200,10600 14200,9500 17100,9500 17100,10600 15650,10600 Z"/>
       <text class="TextShape"><tspan class="TextParagraph" font-family="Arial, sans-serif" font-size="494px" font-weight="400"><tspan class="TextPosition" x="14630" y="10222"><tspan fill="rgb(0,0,0)" stroke="none">Вузол 12</tspan></tspan></tspan></text>
      </g>
     </g>
     <g class="com.sun.star.drawing.ConnectorShape">
      <g id="id24">
       <path fill="none" stroke="rgb(0,0,0)" d="M 5450,8430 L 5450,9070"/>
       <path fill="rgb(0,0,0)" stroke="none" d="M 5450,8000 L 5300,8450 5600,8450 5450,8000 Z"/>
       <path fill="rgb(0,0,0)" stroke="none" d="M 5450,9500 L 5600,9050 5300,9050 5450,9500 Z"/>
      </g>
     </g>
     <g class="com.sun.star.drawing.ConnectorShape">
      <g id="id25">
       <path fill="none" stroke="rgb(0,0,0)" d="M 8850,8430 L 8850,9070"/>
       <path fill="rgb(0,0,0)" stroke="none" d="M 8850,8000 L 8700,8450 9000,8450 8850,8000 Z"/>
       <path fill="rgb(0,0,0)" stroke="none" d="M 8850,9500 L 9000,9050 8700,9050 8850,9500 Z"/>
      </g>
     </g>
     <g class="com.sun.star.drawing.ConnectorShape">
      <g id="id26">
       <path fill="none" stroke="rgb(0,0,0)" d="M 15650,8430 L 15650,9070"/>
       <path fill="rgb(0,0,0)" stroke="none" d="M 15650,8000 L 15500,8450 15800,8450 15650,8000 Z"/>
       <path fill="rgb(0,0,0)" stroke="none" d="M 15650,9500 L 15800,9050 15500,9050 15650,9500 Z"/>
      </g>
     </g>
     <g class="com.sun.star.drawing.ConnectorShape">
      <g id="id27">
       <path fill="none" stroke="rgb(0,0,0)" d="M 15257,8174 L 12643,9326"/>
       <path fill="rgb(0,0,0)" stroke="none" d="M 15650,8000 L 15178,8044 15299,8319 15650,8000 Z"/>
       <path fill="rgb(0,0,0)" stroke="none" d="M 12250,9500 L 12722,9456 12601,9181 12250,9500 Z"/>
      </g>
     </g>
    </g>
   </g>
  </g>
 </g>
</svg>