<?xml version="1.0" encoding="UTF-8"?>
<!DOCTYPE svg PUBLIC "-//W3C//DTD SVG 1.1//EN" "http://www.w3.org/Graphics/SVG/1.1/DTD/svg11.dtd">
<svg version="1.2" width="210mm" height="297mm" viewBox="0 0 21000 29700" preserveAspectRatio="xMidYMid" fill-rule="evenodd" clip-path="url(#presentation_clip_path)" stroke-width="28.222" stroke-linejoin="round" xmlns="http://www.w3.org/2000/svg" xmlns:ooo="http://xml.openoffice.org/svg/export" xmlns:xlink="http://www.w3.org/1999/xlink" xml:space="preserve">
 <defs class="ClipPathGroup">
  <clipPath id="presentation_clip_path" clipPathUnits="userSpaceOnUse">
   <rect x="0" y="0" width="21000" height="29700"/>
  </clipPath>
 </defs>
 <defs class="TextShapeIndex">
  <g ooo:slide="id1" ooo:id-list="id3 id4 id5 id6 id7 id8 id9 id10 id11 id12 id13 id14 id15 id16 id17 id18 id19 id20 id21 id22 id23 id24 id25 id26"/>
 </defs>
 <defs class="EmbeddedBulletChars">
  <g id="bullet-char-template(57356)" transform="scale(0.00048828125,-0.00048828125)">
   <path d="M 580,1141 L 1163,571 580,0 -4,571 580,1141 Z"/>
  </g>
  <g id="bullet-char-template(57354)" transform="scale(0.00048828125,-0.00048828125)">
   <path d="M 8,1128 L 1137,1128 1137,0 8,0 8,1128 Z"/>
  </g>
  <g id="bullet-char-template(10146)" transform="scale(0.00048828125,-0.00048828125)">
   <path d="M 174,0 L 602,739 174,1481 1456,739 174,0 Z M 1358,739 L 309,1346 659,739 1358,739 Z"/>
  </g>
  <g id="bullet-char-template(10132)" transform="scale(0.00048828125,-0.00048828125)">
   <path d="M 2015,739 L 1276,0 717,0 1260,543 174,543 174,936 1260,936 717,1481 1274,1481 2015,739 Z"/>
  </g>
  <g id="bullet-char-template(10007)" transform="scale(0.00048828125,-0.00048828125)">
   <path d="M 0,-2 C -7,14 -16,27 -25,37 L 356,567 C 262,823 215,952 215,954 215,979 228,992 255,992 264,992 276,990 289,987 310,991 331,999 354,1012 L 381,999 492,748 772,1049 836,1024 860,1049 C 881,1039 901,1025 922,1006 886,937 835,863 770,784 769,783 710,716 594,584 L 774,223 C 774,196 753,168 711,139 L 727,119 C 717,90 699,76 672,76 641,76 570,178 457,381 L 164,-76 C 142,-110 111,-127 72,-127 30,-127 9,-110 8,-76 1,-67 -2,-52 -2,-32 -2,-23 -1,-13 0,-2 Z"/>
  </g>
  <g id="bullet-char-template(10004)" transform="scale(0.00048828125,-0.00048828125)">
   <path d="M 285,-33 C 182,-33 111,30 74,156 52,228 41,333 41,471 41,549 55,616 82,672 116,743 169,778 240,778 293,778 328,747 346,684 L 369,508 C 377,444 397,411 428,410 L 1163,1116 C 1174,1127 1196,1133 1229,1133 1271,1133 1292,1118 1292,1087 L 1292,965 C 1292,929 1282,901 1262,881 L 442,47 C 390,-6 338,-33 285,-33 Z"/>
  </g>
  <g id="bullet-char-template(9679)" transform="scale(0.00048828125,-0.00048828125)">
   <path d="M 813,0 C 632,0 489,54 383,161 276,268 223,411 223,592 223,773 276,916 383,1023 489,1130 632,1184 813,1184 992,1184 1136,1130 1245,1023 1353,916 1407,772 1407,592 1407,412 1353,268 1245,161 1136,54 992,0 813,0 Z"/>
  </g>
  <g id="bullet-char-template(8226)" transform="scale(0.00048828125,-0.00048828125)">
   <path d="M 346,457 C 273,457 209,483 155,535 101,586 74,649 74,723 74,796 101,859 155,911 209,963 273,989 346,989 419,989 480,963 531,910 582,859 608,796 608,723 608,648 583,586 532,535 482,483 420,457 346,457 Z"/>
  </g>
  <g id="bullet-char-template(8211)" transform="scale(0.00048828125,-0.00048828125)">
   <path d="M -4,459 L 1135,459 1135,606 -4,606 -4,459 Z"/>
  </g>
 </defs>
 <defs class="TextEmbeddedBitmaps"/>
 <g>
  <g id="id2" class="Master_Slide">
   <g id="bg-id2" class="Background"/>
   <g id="bo-id2" class="BackgroundObjects"/>
  </g>
 </g>
 <g class="SlideGroup">
  <g>
   <g id="id1" class="Slide" clip-path="url(#presentation_clip_path)">
    <g class="Page">
     <g class="com.sun.star.drawing.CustomShape">
      <g id="id3">
       <path fill="none" stroke="rgb(0,0,0)" d="M 6531,2301 C 6065,2301 5600,2125 5600,1950 5600,1775 6065,1600 6531,1600 L 10469,1600 C 10934,1600 11400,1775 11400,1950 11400,2125 10934,2301 10469,2301 L 6531,2301 Z"/>
       <path fill="none" stroke="rgb(0,0,0)" d="M 5600,1600 L 5600,1600 Z"/>
       <path fill="none" stroke="rgb(0,0,0)" d="M 11401,2301 L 11401,2301 Z"/>
       <text class="TextShape"><tspan class="TextParagraph" font-family="Arial, sans-serif" font-size="353px" font-weight="400"><tspan class="TextPosition" x="7844" y="2071"><tspan fill="rgb(0,0,0)" stroke="none">Початок</tspan></tspan></tspan></text>
      </g>
     </g>
     <g class="com.sun.star.drawing.CustomShape">
      <g id="id4">
       <path fill="none" stroke="rgb(0,0,0)" d="M 5600,3500 L 8500,2900 11400,3500 8500,4101 5600,3500 5600,3500 Z"/>
       <path fill="none" stroke="rgb(0,0,0)" d="M 5600,2900 L 5600,2900 Z"/>
       <path fill="none" stroke="rgb(0,0,0)" d="M 11401,4101 L 11401,4101 Z"/>
       <text class="TextShape"><tspan class="TextParagraph" font-family="Arial, sans-serif" font-size="353px" font-weight="400"><tspan class="TextPosition" x="7558" y="3424"><tspan fill="rgb(0,0,0)" stroke="none">Черга подій</tspan></tspan><tspan class="TextPosition" x="7706" y="3818"><tspan fill="rgb(0,0,0)" stroke="none">порожня?</tspan></tspan></tspan></text>
      </g>
     </g>
     <g class="com.sun.star.drawing.ConnectorShape">
      <g id="id5">
       <path fill="none" stroke="rgb(0,0,0)" d="M 8500,2300 L 8500,2470"/>
       <path fill="rgb(0,0,0)" stroke="none" d="M 8500,2900 L 8650,2450 8350,2450 8500,2900 Z"/>
      </g>
     </g>
     <g class="com.sun.star.drawing.CustomShape">
      <g id="id6">
       <path fill="none" stroke="rgb(0,0,0)" d="M 13200,2800 L 19000,2800 19000,4200 13200,4200 13200,2800 13200,2800 Z"/>
       <path fill="none" stroke="rgb(0,0,0)" d="M 13200,2800 L 13200,2800 Z"/>
       <path fill="none" stroke="rgb(0,0,0)" d="M 19001,4201 L 19001,4201 Z"/>
       <text class="TextShape"><tspan class="TextParagraph" font-family="Arial, sans-serif" font-size="353px" font-weight="400"><tspan class="TextPosition" x="14504" y="3227"><tspan fill="rgb(0,0,0)" stroke="none">Очікування сигналу</tspan></tspan><tspan class="TextPosition" x="14870" y="3621"><tspan fill="rgb(0,0,0)" stroke="none">про появу події</tspan></tspan><tspan class="TextPosition" x="14500" y="4015"><tspan fill="rgb(0,0,0)" stroke="none">(pthread_cond_wait)</tspan></tspan></tspan></text>
      </g>
     </g>
     <g class="com.sun.star.drawing.CustomShape">
      <g id="id7">
       <path fill="none" stroke="rgb(0,0,0)" d="M 2100,4800 L 7900,4800 7900,6200 2100,6200 2100,4800 2100,4800 Z"/>
       <path fill="none" stroke="rgb(0,0,0)" d="M 2100,4800 L 2100,4800 Z"/>
       <path fill="none" stroke="rgb(0,0,0)" d="M 7901,6201 L 7901,6201 Z"/>
       <text class="TextShape"><tspan class="TextParagraph" font-family="Arial, sans-serif" font-size="353px" font-weight="400"><tspan class="TextPosition" x="3072" y="5424"><tspan fill="rgb(0,0,0)" stroke="none">Блокування черги подій</tspan></tspan><tspan class="TextPosition" x="3301" y="5818"><tspan fill="rgb(0,0,0)" stroke="none">(pthread_mutex_lock)</tspan></tspan></tspan></text>
      </g>
     </g>
     <g class="com.sun.star.drawing.CustomShape">
      <g id="id8">
       <path fill="none" stroke="rgb(0,0,0)" d="M 2100,6800 L 7900,6800 7900,8200 2100,8200 2100,6800 2100,6800 Z"/>
       <path fill="none" stroke="rgb(0,0,0)" d="M 2100,6800 L 2100,6800 Z"/>
       <path fill="none" stroke="rgb(0,0,0)" d="M 7901,8201 L 7901,8201 Z"/>
       <text class="TextShape"><tspan class="TextParagraph" font-family="Arial, sans-serif" font-size="353px" font-weight="400"><tspan class="TextPosition" x="2305" y="7424"><tspan fill="rgb(0,0,0)" stroke="none">Забирання вершини черги (події)</tspan></tspan><tspan class="TextPosition" x="3658" y="7818"><tspan fill="rgb(0,0,0)" stroke="none">на опрацювання</tspan></tspan></tspan></text>
      </g>
     </g>
     <g class="com.sun.star.drawing.CustomShape">
      <g id="id9">
       <path fill="none" stroke="rgb(0,0,0)" d="M 2100,8800 L 7900,8800 7900,10200 2100,10200 2100,8800 2100,8800 Z"/>
       <path fill="none" stroke="rgb(0,0,0)" d="M 2100,8800 L 2100,8800 Z"/>
       <path fill="none" stroke="rgb(0,0,0)" d="M 7901,10201 L 7901,10201 Z"/>
       <text class="TextShape"><tspan class="TextParagraph" font-family="Arial, sans-serif" font-size="353px" font-weight="400"><tspan class="TextPosition" x="2807" y="9424"><tspan fill="rgb(0,0,0)" stroke="none">Розблокування черги подій</tspan></tspan><tspan class="TextPosition" x="3106" y="9818"><tspan fill="rgb(0,0,0)" stroke="none">(pthread_mutex_unlock)</tspan></tspan></tspan></text>
      </g>
     </g>
     <g class="com.sun.star.drawing.ConnectorShape">
      <g id="id10">
       <path fill="none" stroke="rgb(0,0,0)" d="M 5000,6200 L 5000,6370"/>
       <path fill="rgb(0,0,0)" stroke="none" d="M 5000,6800 L 5150,6350 4850,6350 5000,6800 Z"/>
      </g>
     </g>
     <g class="com.sun.star.drawing.ConnectorShape">
      <g id="id11">
       <path fill="none" stroke="rgb(0,0,0)" d="M 5000,8200 L 5000,8370"/>
       <path fill="rgb(0,0,0)" stroke="none" d="M 5000,8800 L 5150,8350 4850,8350 5000,8800 Z"/>
      </g>
     </g>
     <g class="com.sun.star.drawing.ConnectorShape">
      <g id="id12">
       <path fill="none" stroke="rgb(0,0,0)" d="M 11400,3500 L 12770,3500"/>
       <path fill="rgb(0,0,0)" stroke="none" d="M 13200,3500 L 12750,3350 12750,3650 13200,3500 Z"/>
      </g>
     </g>
     <g class="com.sun.star.drawing.ConnectorShape">
      <g id="id13">
       <path fill="none" stroke="rgb(0,0,0)" d="M 5600,3500 L 5000,3500 5000,4370"/>
       <path fill="rgb(0,0,0)" stroke="none" d="M 5000,4800 L 5150,4350 4850,4350 5000,4800 Z"/>
      </g>
     </g>
     <g class="com.sun.star.drawing.TextShape">
      <g id="id14">
       <text class="TextShape"><tspan class="TextParagraph" font-family="Arial, sans-serif" font-size="353px" font-weight="400"><tspan class="TextPosition" x="4885" y="3343"><tspan fill="rgb(0,0,0)" stroke="none">Ні</tspan></tspan></tspan></text>
      </g>
     </g>
     <g class="com.sun.star.drawing.TextShape">
      <g id="id15">
       <text class="TextShape"><tspan class="TextParagraph" font-family="Arial, sans-serif" font-size="353px" font-weight="400"><tspan class="TextPosition" x="11677" y="3343"><tspan fill="rgb(0,0,0)" stroke="none">Так</tspan></tspan></tspan></text>
      </g>
     </g>
     <g class="com.sun.star.drawing.ConnectorShape">
      <g id="id16">
       <path fill="none" stroke="rgb(0,0,0)" d="M 16100,4200 L 16100,5500 8330,5500"/>
       <path fill="rgb(0,0,0)" stroke="none" d="M 7900,5500 L 8350,5650 8350,5350 7900,5500 Z"/>
      </g>
     </g>
     <g class="com.sun.star.drawing.CustomShape">
      <g id="id17">
       <path fill="none" stroke="rgb(0,0,0)" d="M 5600,12100 L 8500,11500 11400,12100 8500,12701 5600,12100 5600,12100 Z"/>
       <path fill="none" stroke="rgb(0,0,0)" d="M 5600,11500 L 5600,11500 Z"/>
       <path fill="none" stroke="rgb(0,0,0)" d="M 11401,12701 L 11401,12701 Z"/>
       <text class="TextShape"><tspan class="TextParagraph" font-family="Arial, sans-serif" font-size="353px" font-weight="400"><tspan class="TextPosition" x="7126" y="12024"><tspan fill="rgb(0,0,0)" stroke="none">Визначення типу</tspan></tspan><tspan class="TextPosition" x="8123" y="12418"><tspan fill="rgb(0,0,0)" stroke="none">події</tspan></tspan></tspan></text>
      </g>
     </g>
     <g class="com.sun.star.drawing.CustomShape">
      <g id="id18">
       <path fill="none" stroke="rgb(0,0,0)" d="M 2100,13800 L 7900,13800 7900,15200 2100,15200 2100,13800 2100,13800 Z"/>
       <path fill="none" stroke="rgb(0,0,0)" d="M 2100,13800 L 2100,13800 Z"/>
       <path fill="none" stroke="rgb(0,0,0)" d="M 7901,15201 L 7901,15201 Z"/>
       <text class="TextShape"><tspan class="TextParagraph" font-family="Arial, sans-serif" font-size="353px" font-weight="400"><tspan class="TextPosition" x="2865" y="14621"><tspan fill="rgb(0,0,0)" stroke="none">Обробник для типу події 0</tspan></tspan></tspan></text>
      </g>
     </g>
     <g class="com.sun.star.drawing.CustomShape">
      <g id="id19">
       <path fill="none" stroke="rgb(0,0,0)" d="M 9200,13800 L 15000,13800 15000,15200 9200,15200 9200,13800 9200,13800 Z"/>
       <path fill="none" stroke="rgb(0,0,0)" d="M 9200,13800 L 9200,13800 Z"/>
       <path fill="none" stroke="rgb(0,0,0)" d="M 15001,15201 L 15001,15201 Z"/>
       <text class="TextShape"><tspan class="TextParagraph" font-family="Arial, sans-serif" font-size="353px" font-weight="400"><tspan class="TextPosition" x="9935" y="14621"><tspan fill="rgb(0,0,0)" stroke="none">Обробник для типу події N</tspan></tspan></tspan></text>
      </g>
     </g>
     <g class="com.sun.star.drawing.ConnectorShape">
      <g id="id20">
       <path fill="none" stroke="rgb(0,0,0)" d="M 5000,10200 L 5000,10851 8500,10851 8500,11070"/>
       <path fill="rgb(0,0,0)" stroke="none" d="M 8500,11500 L 8650,11050 8350,11050 8500,11500 Z"/>
      </g>
     </g>
     <g class="com.sun.star.drawing.ConnectorShape">
      <g id="id21">
       <path fill="none" stroke="rgb(0,0,0)" d="M 8500,12700 L 8500,13251 5000,13251 5000,13370"/>
       <path fill="rgb(0,0,0)" stroke="none" d="M 5000,13800 L 5150,13350 4850,13350 5000,13800 Z"/>
      </g>
     </g>
     <g class="com.sun.star.drawing.ConnectorShape">
      <g id="id22">
       <path fill="none" stroke="rgb(0,0,0)" d="M 8500,12700 L 8500,13251 12100,13251 12100,13370"/>
       <path fill="rgb(0,0,0)" stroke="none" d="M 12100,13800 L 12250,13350 11950,13350 12100,13800 Z"/>
      </g>
     </g>
     <g class="com.sun.star.drawing.TextShape">
      <g id="id23">
       <text class="TextShape"><tspan class="TextParagraph" font-family="Arial, sans-serif" font-size="494px" font-weight="400"><tspan class="TextPosition" x="8291" y="14574"><tspan fill="rgb(0,0,0)" stroke="none">...</tspan></tspan></tspan></text>
      </g>
     </g>
     <g class="com.sun.star.drawing.CustomShape">
      <g id="id24">
       <path fill="none" stroke="rgb(0,0,0)" d="M 6531,17001 C 6065,17001 5600,16825 5600,16650 5600,16475 6065,16300 6531,16300 L 10469,16300 C 10934,16300 11400,16475 11400,16650 11400,16825 10934,17001 10469,17001 L 6531,17001 Z"/>
       <path fill="none" stroke="rgb(0,0,0)" d="M 5600,16300 L 5600,16300 Z"/>
       <path fill="none" stroke="rgb(0,0,0)" d="M 11401,17001 L 11401,17001 Z"/>
       <text class="TextShape"><tspan class="TextParagraph" font-family="Arial, sans-serif" font-size="353px" font-weight="400"><tspan class="TextPosition" x="7973" y="16771"><tspan fill="rgb(0,0,0)" stroke="none">Кінець</tspan></tspan></tspan></text>
      </g>
     </g>
     <g class="com.sun.star.drawing.ConnectorShape">
      <g id="id25">
       <path fill="none" stroke="rgb(0,0,0)" d="M 5000,15200 L 5000,15751 8500,15751 8500,15870"/>
       <path fill="rgb(0,0,0)" stroke="none" d="M 8500,16300 L 8650,15850 8350,15850 8500,16300 Z"/>
      </g>
     </g>
     <g class="com.sun.star.drawing.ConnectorShape">
      <g id="id26">
       <path fill="none" stroke="rgb(0,0,0)" d="M 12100,15200 L 12100,15751 8500,15751 8500,15870"/>
       <path fill="rgb(0,0,0)" stroke="none" d="M 8500,16300 L 8650,15850 8350,15850 8500,16300 Z"/>
      </g>
     </g>
    </g>
   </g>
  </g>
 </g>
</svg>