<?xml version="1.0" encoding="UTF-8"?>
<!DOCTYPE svg PUBLIC "-//W3C//DTD SVG 1.1//EN" "http://www.w3.org/Graphics/SVG/1.1/DTD/svg11.dtd">
<svg version="1.2" width="210mm" height="297mm" viewBox="0 0 21000 29700" preserveAspectRatio="xMidYMid" fill-rule="evenodd" clip-path="url(#presentation_clip_path)" stroke-width="28.222" stroke-linejoin="round" xmlns="http://www.w3.org/2000/svg" xmlns:ooo="http://xml.openoffice.org/svg/export" xmlns:xlink="http://www.w3.org/1999/xlink" xml:space="preserve">
 <defs class="ClipPathGroup">
  <clipPath id="presentation_clip_path" clipPathUnits="userSpaceOnUse">
   <rect x="0" y="0" width="21000" height="29700"/>
  </clipPath>
 </defs>
 <defs class="TextShapeIndex">
  <g ooo:slide="id1" ooo:id-list="id3 id4 id5 id6 id7 id8 id9 id10 id11 id12 id13 id14 id15 id16 id17 id18 id19 id20 id21 id22 id23 id24 id25 id26 id27 id28 id29 id30"/>
 </defs>
 <defs class="EmbeddedBulletChars">
  <g id="bullet-char-template(57356)" transform="scale(0.00048828125,-0.00048828125)">
   <path d="M 580,1141 L 1163,571 580,0 -4,571 580,1141 Z"/>
  </g>
  <g id="bullet-char-template(57354)" transform="scale(0.00048828125,-0.00048828125)">
   <path d="M 8,1128 L 1137,1128 1137,0 8,0 8,1128 Z"/>
  </g>
  <g id="bullet-char-template(10146)" transform="scale(0.00048828125,-0.00048828125)">
   <path d="M 174,0 L 602,739 174,1481 1456,739 174,0 Z M 1358,739 L 309,1346 659,739 1358,739 Z"/>
  </g>
  <g id="bullet-char-template(10132)" transform="scale(0.00048828125,-0.00048828125)">
   <path d="M 2015,739 L 1276,0 717,0 1260,543 174,543 174,936 1260,936 717,1481 1274,1481 2015,739 Z"/>
  </g>
  <g id="bullet-char-template(10007)" transform="scale(0.00048828125,-0.00048828125)">
   <path d="M 0,-2 C -7,14 -16,27 -25,37 L 356,567 C 262,823 215,952 215,954 215,979 228,992 255,992 264,992 276,990 289,987 310,991 331,999 354,1012 L 381,999 492,748 772,1049 836,1024 860,1049 C 881,1039 901,1025 922,1006 886,937 835,863 770,784 769,783 710,716 594,584 L 774,223 C 774,196 753,168 711,139 L 727,119 C 717,90 699,76 672,76 641,76 570,178 457,381 L 164,-76 C 142,-110 111,-127 72,-127 30,-127 9,-110 8,-76 1,-67 -2,-52 -2,-32 -2,-23 -1,-13 0,-2 Z"/>
  </g>
  <g id="bullet-char-template(10004)" transform="scale(0.00048828125,-0.00048828125)">
   <path d="M 285,-33 C 182,-33 111,30 74,156 52,228 41,333 41,471 41,549 55,616 82,672 116,743 169,778 240,778 293,778 328,747 346,684 L 369,508 C 377,444 397,411 428,410 L 1163,1116 C 1174,1127 1196,1133 1229,1133 1271,1133 1292,1118 1292,1087 L 1292,965 C 1292,929 1282,901 1262,881 L 442,47 C 390,-6 338,-33 285,-33 Z"/>
  </g>
  <g id="bullet-char-template(9679)" transform="scale(0.00048828125,-0.00048828125)">
   <path d="M 813,0 C 632,0 489,54 383,161 276,268 223,411 223,592 223,773 276,916 383,1023 489,1130 632,1184 813,1184 992,1184 1136,1130 1245,1023 1353,916 1407,772 1407,592 1407,412 1353,268 1245,161 1136,54 992,0 813,0 Z"/>
  </g>
  <g id="bullet-char-template(8226)" transform="scale(0.00048828125,-0.00048828125)">
   <path d="M 346,457 C 273,457 209,483 155,535 101,586 74,649 74,723 74,796 101,859 155,911 209,963 273,989 346,989 419,989 480,963 531,910 582,859 608,796 608,723 608,648 583,586 532,535 482,483 420,457 346,457 Z"/>
  </g>
  <g id="bullet-char-template(8211)" transform="scale(0.00048828125,-0.00048828125)">
   <path d="M -4,459 L 1135,459 1135,606 -4,606 -4,459 Z"/>
  </g>
 </defs>
 <defs class="TextEmbeddedBitmaps"/>
 <g>
  <g id="id2" class="Master_Slide">
   <g id="bg-id2" class="Background"/>
   <g id="bo-id2" class="BackgroundObjects"/>
  </g>
 </g>
 <g class="SlideGroup">
  <g>
   <g id="id1" class="Slide" clip-path="url(#presentation_clip_path)">
    <g class="Page">
     <g class="com.sun.star.drawing.CustomShape">
      <g id="id3">
       <path fill="none" stroke="rgb(0,0,0)" d="M 10250,9200 L 7300,9200 7300,7500 13200,7500 13200,9200 10250,9200 Z"/>
       <text class="TextShape"><tspan class="TextParagraph" font-family="Arial, sans-serif" font-size="494px" font-weight="400"><tspan class="TextPosition" x="8443" y="8522"><tspan fill="rgb(0,0,0)" stroke="none">Генерація подій</tspan></tspan></tspan></text>
      </g>
     </g>
     <g class="com.sun.star.drawing.CustomShape">
      <g id="id4">
       <path fill="none" stroke="rgb(0,0,0)" d="M 10250,12100 L 7300,12100 7300,10400 13200,10400 13200,12100 10250,12100 Z"/>
       <text class="TextShape"><tspan class="TextParagraph" font-family="Arial, sans-serif" font-size="494px" font-weight="400"><tspan class="TextPosition" x="8915" y="11422"><tspan fill="rgb(0,0,0)" stroke="none">Черга подій</tspan></tspan></tspan></text>
      </g>
     </g>
     <g class="com.sun.star.drawing.CustomShape">
      <g id="id5">
       <path fill="none" stroke="rgb(0,0,0)" d="M 16000,6400 L 14200,6400 14200,4700 17800,4700 17800,6400 16000,6400 Z"/>
       <text class="TextShape"><tspan class="TextParagraph" font-family="Arial, sans-serif" font-size="494px" font-weight="400"><tspan class="TextPosition" x="14614" y="5722"><tspan fill="rgb(0,0,0)" stroke="none">Сокет вузла</tspan></tspan></tspan></text>
      </g>
     </g>
     <g class="com.sun.star.drawing.TextShape">
      <g id="id6">
       <text class="TextShape"><tspan class="TextParagraph" font-family="Arial, sans-serif" font-size="353px" font-weight="400"><tspan class="TextPosition" x="16413" y="7104"><tspan fill="rgb(0,0,0)" stroke="none">Прийнято</tspan></tspan><tspan class="TextPosition" x="16817" y="7498"><tspan fill="rgb(0,0,0)" stroke="none">нове </tspan></tspan><tspan class="TextPosition" x="16411" y="7892"><tspan fill="rgb(0,0,0)" stroke="none">з&apos;єднання</tspan></tspan></tspan></text>
      </g>
     </g>
     <g class="com.sun.star.drawing.CustomShape">
      <g id="id7">
       <path fill="none" stroke="rgb(0,0,0)" d="M 4400,3400 L 2600,3400 2600,1700 6200,1700 6200,3400 4400,3400 Z"/>
       <text class="TextShape"><tspan class="TextParagraph" font-family="Arial, sans-serif" font-size="494px" font-weight="400"><tspan class="TextPosition" x="3577" y="2444"><tspan fill="rgb(0,0,0)" stroke="none">Список</tspan></tspan><tspan class="TextPosition" x="3427" y="2999"><tspan fill="rgb(0,0,0)" stroke="none">з&apos;єднань</tspan></tspan></tspan></text>
      </g>
     </g>
     <g class="com.sun.star.drawing.CustomShape">
      <g id="id8">
       <path fill="none" stroke="rgb(0,0,0)" d="M 4400,6400 L 2600,6400 2600,4700 6200,4700 6200,6400 4400,6400 Z"/>
       <text class="TextShape"><tspan class="TextParagraph" font-family="Arial, sans-serif" font-size="494px" font-weight="400"><tspan class="TextPosition" x="3020" y="5444"><tspan fill="rgb(0,0,0)" stroke="none">Опитування</tspan></tspan><tspan class="TextPosition" x="3427" y="5999"><tspan fill="rgb(0,0,0)" stroke="none">з&apos;єднань</tspan></tspan></tspan></text>
      </g>
     </g>
     <g class="com.sun.star.drawing.ConnectorShape">
      <g id="id9">
       <path fill="none" stroke="rgb(0,0,0)" d="M 4400,4700 L 4400,3830"/>
       <path fill="rgb(0,0,0)" stroke="none" d="M 4400,3400 L 4250,3850 4550,3850 4400,3400 Z"/>
      </g>
     </g>
     <g class="com.sun.star.drawing.ConnectorShape">
      <g id="id10">
       <path fill="none" stroke="rgb(0,0,0)" d="M 4400,6400 L 4400,8350 6870,8350"/>
       <path fill="rgb(0,0,0)" stroke="none" d="M 7300,8350 L 6850,8200 6850,8500 7300,8350 Z"/>
      </g>
     </g>
     <g class="com.sun.star.drawing.ConnectorShape">
      <g id="id11">
       <path fill="none" stroke="rgb(0,0,0)" d="M 16000,6400 L 16000,8350 13630,8350"/>
       <path fill="rgb(0,0,0)" stroke="none" d="M 13200,8350 L 13650,8500 13650,8200 13200,8350 Z"/>
      </g>
     </g>
     <g class="com.sun.star.drawing.TextShape">
      <g id="id12">
       <text class="TextShape"><tspan class="TextParagraph" font-family="Arial, sans-serif" font-size="353px" font-weight="400"><tspan class="TextPosition" x="2043" y="7043"><tspan fill="rgb(0,0,0)" stroke="none">Є дані для </tspan></tspan><tspan class="TextPosition" x="1501" y="7437"><tspan fill="rgb(0,0,0)" stroke="none">читання із сокета </tspan></tspan><tspan class="TextPosition" x="2111" y="7831"><tspan fill="rgb(0,0,0)" stroke="none">з&apos;єднання</tspan></tspan><tspan class="TextPosition" x="2092" y="8225"><tspan fill="rgb(0,0,0)" stroke="none">(команда)</tspan></tspan></tspan></text>
      </g>
     </g>
     <g class="com.sun.star.drawing.ConnectorShape">
      <g id="id13">
       <path fill="none" stroke="rgb(0,0,0)" d="M 10250,9200 L 10250,9970"/>
       <path fill="rgb(0,0,0)" stroke="none" d="M 10250,10400 L 10400,9950 10100,9950 10250,10400 Z"/>
      </g>
     </g>
     <g class="com.sun.star.drawing.TextShape">
      <g id="id14">
       <text class="TextShape"><tspan class="TextParagraph" font-family="Arial, sans-serif" font-size="353px" font-weight="400"><tspan class="TextPosition" x="10457" y="9843"><tspan fill="rgb(0,0,0)" stroke="none">Створено подію</tspan></tspan></tspan></text>
      </g>
     </g>
     <g class="com.sun.star.drawing.CustomShape">
      <g id="id15">
       <path fill="none" stroke="rgb(0,0,0)" d="M 4300,20800 L 2500,20800 2500,19100 6100,19100 6100,20800 4300,20800 Z"/>
       <text class="TextShape"><tspan class="TextParagraph" font-family="Arial, sans-serif" font-size="494px" font-weight="400"><tspan class="TextPosition" x="3142" y="20122"><tspan fill="rgb(0,0,0)" stroke="none">Конвеєр 0</tspan></tspan></tspan></text>
      </g>
     </g>
     <g class="com.sun.star.drawing.CustomShape">
      <g id="id16">
       <path fill="none" stroke="rgb(0,0,0)" d="M 7100,22800 L 5300,22800 5300,21100 8900,21100 8900,22800 7100,22800 Z"/>
       <text class="TextShape"><tspan class="TextParagraph" font-family="Arial, sans-serif" font-size="494px" font-weight="400"><tspan class="TextPosition" x="5942" y="22122"><tspan fill="rgb(0,0,0)" stroke="none">Конвеєр 1</tspan></tspan></tspan></text>
      </g>
     </g>
     <g class="com.sun.star.drawing.CustomShape">
      <g id="id17">
       <path fill="none" stroke="rgb(0,0,0)" d="M 14300,23300 L 12500,23300 12500,21600 16100,21600 16100,23300 14300,23300 Z"/>
       <text class="TextShape"><tspan class="TextParagraph" font-family="Arial, sans-serif" font-size="494px" font-weight="400"><tspan class="TextPosition" x="13100" y="22622"><tspan fill="rgb(0,0,0)" stroke="none">Конвеєр N</tspan></tspan></tspan></text>
      </g>
     </g>
     <g class="com.sun.star.drawing.CustomShape">
      <g id="id18">
       <path fill="none" stroke="rgb(0,0,0)" d="M 10300,14400 C 15403,14400 19300,16825 19300,20000 19300,23175 15403,25600 10300,25600 5197,25600 1300,23175 1300,20000 1300,16825 5197,14400 10300,14400 Z"/>
       <path fill="none" stroke="rgb(0,0,0)" d="M 1300,14400 L 1300,14400 Z"/>
       <path fill="none" stroke="rgb(0,0,0)" d="M 19301,25601 L 19301,25601 Z"/>
      </g>
     </g>
     <g class="com.sun.star.drawing.TextShape">
      <g id="id19">
       <text class="TextShape"><tspan class="TextParagraph" font-family="Arial, sans-serif" font-size="494px" font-weight="400"><tspan class="TextPosition" x="5204" y="16074"><tspan fill="rgb(0,0,0)" stroke="none">Конвеєри (потоки </tspan></tspan><tspan class="TextPosition" x="5653" y="16629"><tspan fill="rgb(0,0,0)" stroke="none">опрацювання </tspan></tspan><tspan class="TextPosition" x="6517" y="17184"><tspan fill="rgb(0,0,0)" stroke="none">подій)</tspan></tspan></tspan></text>
      </g>
     </g>
     <g class="com.sun.star.drawing.ConnectorShape">
      <g id="id20">
       <path fill="none" stroke="rgb(0,0,0)" d="M 13200,11250 L 16665,11250 16665,15610"/>
       <path fill="rgb(0,0,0)" stroke="none" d="M 16665,16040 L 16815,15590 16515,15590 16665,16040 Z"/>
      </g>
     </g>
     <g class="com.sun.star.drawing.TextShape">
      <g id="id21">
       <text class="TextShape"><tspan class="TextParagraph" font-family="Arial, sans-serif" font-size="353px" font-weight="400"><tspan class="TextPosition" x="14467" y="12945"><tspan fill="rgb(0,0,0)" stroke="none">Сигнал: </tspan></tspan><tspan class="TextPosition" x="13845" y="13339"><tspan fill="rgb(0,0,0)" stroke="none">з&apos;явилася подія </tspan></tspan><tspan class="TextPosition" x="13655" y="13733"><tspan fill="rgb(0,0,0)" stroke="none">для опрацювання</tspan></tspan></tspan></text>
      </g>
     </g>
     <g class="com.sun.star.drawing.TextShape">
      <g id="id22">
       <text class="TextShape"><tspan class="TextParagraph" font-family="Arial, sans-serif" font-size="353px" font-weight="400"><tspan class="TextPosition" x="3432" y="21243"><tspan fill="rgb(0,0,0)" stroke="none">Зайнятий</tspan></tspan></tspan></text>
      </g>
     </g>
     <g class="com.sun.star.drawing.TextShape">
      <g id="id23">
       <text class="TextShape"><tspan class="TextParagraph" font-family="Arial, sans-serif" font-size="353px" font-weight="400"><tspan class="TextPosition" x="6332" y="23243"><tspan fill="rgb(0,0,0)" stroke="none">Зайнятий</tspan></tspan></tspan></text>
      </g>
     </g>
     <g class="com.sun.star.drawing.TextShape">
      <g id="id24">
       <text class="TextShape"><tspan class="TextParagraph" font-family="Arial, sans-serif" font-size="353px" font-weight="400"><tspan class="TextPosition" x="14661" y="23843"><tspan fill="rgb(0,0,0)" stroke="none">Вільний</tspan></tspan></tspan></text>
      </g>
     </g>
     <g class="com.sun.star.drawing.ConnectorShape">
      <g id="id25">
       <path fill="none" stroke="rgb(0,0,0)" d="M 16665,16040 L 14468,21204"/>
       <path fill="rgb(0,0,0)" stroke="none" d="M 14300,21600 L 14614,21245 14338,21127 14300,21600 Z"/>
      </g>
     </g>
     <g class="com.sun.star.drawing.TextShape">
      <g id="id26">
       <text class="TextShape"><tspan class="TextParagraph" font-family="Arial, sans-serif" font-size="353px" font-weight="400"><tspan class="TextPosition" x="15879" y="18946"><tspan fill="rgb(0,0,0)" stroke="none">Отримання </tspan></tspan><tspan class="TextPosition" x="15827" y="19340"><tspan fill="rgb(0,0,0)" stroke="none">сигналу про </tspan></tspan><tspan class="TextPosition" x="15778" y="19734"><tspan fill="rgb(0,0,0)" stroke="none">появую події</tspan></tspan></tspan></text>
      </g>
     </g>
     <g class="com.sun.star.drawing.ConnectorShape">
      <g id="id27">
       <path fill="none" stroke="rgb(0,0,0)" d="M 12409,22030 L 10341,12520"/>
       <path fill="rgb(0,0,0)" stroke="none" d="M 12500,22450 L 12551,21978 12258,22042 12500,22450 Z"/>
       <path fill="rgb(0,0,0)" stroke="none" d="M 10250,12100 L 10199,12572 10492,12508 10250,12100 Z"/>
      </g>
     </g>
     <g class="com.sun.star.drawing.TextShape">
      <g id="id28">
       <text class="TextShape"><tspan class="TextParagraph" font-family="Arial, sans-serif" font-size="353px" font-weight="400"><tspan class="TextPosition" x="11700" y="16747"><tspan fill="rgb(0,0,0)" stroke="none">Блокування черги </tspan></tspan><tspan class="TextPosition" x="12031" y="17141"><tspan fill="rgb(0,0,0)" stroke="none">подій (mutex), </tspan></tspan><tspan class="TextPosition" x="11520" y="17535"><tspan fill="rgb(0,0,0)" stroke="none">забирання вершини </tspan></tspan><tspan class="TextPosition" x="12460" y="17929"><tspan fill="rgb(0,0,0)" stroke="none">черги на </tspan></tspan><tspan class="TextPosition" x="12052" y="18323"><tspan fill="rgb(0,0,0)" stroke="none">опрацювання</tspan></tspan></tspan></text>
      </g>
     </g>
     <g class="com.sun.star.drawing.TextShape">
      <g id="id29">
       <text class="TextShape"><tspan class="TextParagraph" font-family="Arial, sans-serif" font-size="353px" font-weight="400"><tspan class="TextPosition" x="6397" y="19547"><tspan fill="rgb(0,0,0)" stroke="none">Зайняті конвеєри </tspan></tspan><tspan class="TextPosition" x="6427" y="19941"><tspan fill="rgb(0,0,0)" stroke="none">ігнорують сигнал </tspan></tspan><tspan class="TextPosition" x="6515" y="20335"><tspan fill="rgb(0,0,0)" stroke="none">про появу нової </tspan></tspan><tspan class="TextPosition" x="7423" y="20729"><tspan fill="rgb(0,0,0)" stroke="none">події</tspan></tspan></tspan></text>
      </g>
     </g>
     <g class="com.sun.star.drawing.TextShape">
      <g id="id30">
       <text class="TextShape"><tspan class="TextParagraph" font-family="Arial, sans-serif" font-size="1270px" font-weight="400"><tspan class="TextPosition" x="10173" y="22376"><tspan fill="rgb(0,0,0)" stroke="none">...</tspan></tspan></tspan></text>
      </g>
     </g>
    </g>
   </g>
  </g>
 </g>
</svg>